<svg width="586" height="161" xmlns="http://www.w3.org/2000/svg" xmlns:xlink="http://www.w3.org/1999/xlink" xml:space="preserve" overflow="hidden"><defs><clipPath id="clip0"><rect x="444" y="17" width="586" height="161"/></clipPath><clipPath id="clip1"><rect x="445" y="18" width="585" height="160"/></clipPath><clipPath id="clip2"><rect x="445" y="18" width="585" height="160"/></clipPath><clipPath id="clip3"><rect x="445" y="18" width="585" height="160"/></clipPath></defs><g clip-path="url(#clip0)" transform="translate(-444 -17)"><g clip-path="url(#clip1)"><g clip-path="url(#clip2)"><g clip-path="url(#clip3)"><path d="M-4.15584 4.15584-4.15584-155.844 577.662-155.844 577.662 4.15584-4.15584 4.15584Z" fill="#FFFFFF" fill-rule="nonzero" fill-opacity="1" transform="matrix(1.00339 0 0 1 449.775 173.844)"/><path d="M37.4026-47.7922C37.4026-37.4638 29.0297-29.0909 18.7013-29.0909 8.37286-29.0909 0-37.4638 0-47.7922-3.69113e-15-58.1206 8.37286-66.4935 18.7013-66.4935 29.0297-66.4935 37.4026-58.1206 37.4026-47.7922Z" stroke="#000000" stroke-width="1.03896" stroke-linecap="butt" stroke-linejoin="miter" stroke-miterlimit="4" stroke-opacity="1" fill="none" fill-rule="nonzero" transform="matrix(1.00339 0 0 1 449.775 173.844)"/><text fill="#000000" fill-opacity="1" font-family="Times,Times_MSFontService,sans-serif" font-style="normal" font-variant="normal" font-weight="400" font-stretch="normal" font-size="14" text-anchor="start" direction="ltr" writing-mode="lr-tb" unicode-bidi="normal" text-decoration="none" transform="matrix(1.04248 0 0 1.03896 463.327 130)">A</text><path d="M216.104-77.9221C216.104-67.5936 207.731-59.2208 197.403-59.2208 187.074-59.2208 178.701-67.5936 178.701-77.9221 178.701-88.2505 187.074-96.6234 197.403-96.6234 207.731-96.6234 216.104-88.2505 216.104-77.9221Z" stroke="#000000" stroke-width="1.03896" stroke-linecap="butt" stroke-linejoin="miter" stroke-miterlimit="4" stroke-opacity="1" fill="none" fill-rule="nonzero" transform="matrix(1.00339 0 0 1 449.775 173.844)"/><text fill="#000000" fill-opacity="1" font-family="Times,Times_MSFontService,sans-serif" font-style="normal" font-variant="normal" font-weight="400" font-stretch="normal" font-size="14" text-anchor="start" direction="ltr" writing-mode="lr-tb" unicode-bidi="normal" text-decoration="none" transform="matrix(1.04248 0 0 1.03896 643.155 100)">C</text><path d="M37.1524-50.9032C68.1855-56.1355 131.065-66.7371 168.162-72.9921" stroke="#000000" stroke-width="1.03896" stroke-linecap="butt" stroke-linejoin="miter" stroke-miterlimit="4" stroke-opacity="1" fill="none" fill-rule="nonzero" transform="matrix(1.00339 0 0 1 449.775 173.844)"/><path d="M167.935-76.6412 178.784-74.783 169.144-69.4697 167.935-76.6412Z" stroke="#000000" stroke-width="1.03896" stroke-linecap="butt" stroke-linejoin="miter" stroke-miterlimit="4" stroke-opacity="1" fill="#000000" fill-rule="nonzero" fill-opacity="1" transform="matrix(1.00339 0 0 1 449.775 173.844)"/><text fill="#000000" fill-opacity="1" font-family="Times,Times_MSFontService,sans-serif" font-style="normal" font-variant="normal" font-weight="400" font-stretch="normal" font-size="14" text-anchor="start" direction="ltr" writing-mode="lr-tb" unicode-bidi="normal" text-decoration="none" transform="matrix(1.04248 0 0 1.03896 548.811 104)">5.0</text><path d="M126.753-18.7013C126.753-8.37286 118.38 0 108.052 0 97.7235 0 89.3506-8.37286 89.3506-18.7013 89.3506-29.0297 97.7235-37.4026 108.052-37.4026 118.38-37.4026 126.753-29.0297 126.753-18.7013Z" stroke="#000000" stroke-width="1.03896" stroke-linecap="butt" stroke-linejoin="miter" stroke-miterlimit="4" stroke-opacity="1" fill="none" fill-rule="nonzero" transform="matrix(1.00339 0 0 1 449.775 173.844)"/><text fill="#000000" fill-opacity="1" font-family="Times,Times_MSFontService,sans-serif" font-style="normal" font-variant="normal" font-weight="400" font-stretch="normal" font-size="14" text-anchor="start" direction="ltr" writing-mode="lr-tb" unicode-bidi="normal" text-decoration="none" transform="matrix(1.04248 0 0 1.03896 553.502 159)">B</text><path d="M36.7828-41.9052C49.1358-37.8833 65.7541-32.4727 79.836-27.8879" stroke="#000000" stroke-width="1.03896" stroke-linecap="butt" stroke-linejoin="miter" stroke-miterlimit="4" stroke-opacity="1" fill="none" fill-rule="nonzero" transform="matrix(1.00339 0 0 1 449.775 173.844)"/><path d="M81.2441-31.2538 89.9974-24.5795 78.9924-24.3384 81.2441-31.2538Z" stroke="#000000" stroke-width="1.03896" stroke-linecap="butt" stroke-linejoin="miter" stroke-miterlimit="4" stroke-opacity="1" fill="#000000" fill-rule="nonzero" fill-opacity="1" transform="matrix(1.00339 0 0 1 449.775 173.844)"/><text fill="#000000" fill-opacity="1" font-family="Times,Times_MSFontService,sans-serif" font-style="normal" font-variant="normal" font-weight="400" font-stretch="normal" font-size="14" text-anchor="start" direction="ltr" writing-mode="lr-tb" unicode-bidi="normal" text-decoration="none" transform="matrix(1.04248 0 0 1.03896 503.984 136)">2.3</text><path d="M305.455-18.7013C305.455-8.37286 297.082 0 286.753 0 276.425 0 268.052-8.37286 268.052-18.7013 268.052-29.0297 276.425-37.4026 286.753-37.4026 297.082-37.4026 305.455-29.0297 305.455-18.7013Z" stroke="#000000" stroke-width="1.03896" stroke-linecap="butt" stroke-linejoin="miter" stroke-miterlimit="4" stroke-opacity="1" fill="none" fill-rule="nonzero" transform="matrix(1.00339 0 0 1 449.775 173.844)"/><text fill="#000000" fill-opacity="1" font-family="Times,Times_MSFontService,sans-serif" font-style="normal" font-variant="normal" font-weight="400" font-stretch="normal" font-size="14" text-anchor="start" direction="ltr" writing-mode="lr-tb" unicode-bidi="normal" text-decoration="none" transform="matrix(1.04248 0 0 1.03896 732.288 159)">G</text><path d="M212.963-66.9217C219.647-62.2471 227.57-56.773 234.805-51.9481 243.572-46.1019 253.275-39.8376 261.898-34.3405" stroke="#000000" stroke-width="1.03896" stroke-linecap="butt" stroke-linejoin="miter" stroke-miterlimit="4" stroke-opacity="1" fill="none" fill-rule="nonzero" transform="matrix(1.00339 0 0 1 449.775 173.844)"/><path d="M263.913-37.3691 270.738-28.7328 260.017-31.2281 263.913-37.3691Z" stroke="#000000" stroke-width="1.03896" stroke-linecap="butt" stroke-linejoin="miter" stroke-miterlimit="4" stroke-opacity="1" fill="#000000" fill-rule="nonzero" fill-opacity="1" transform="matrix(1.00339 0 0 1 449.775 173.844)"/><text fill="#000000" fill-opacity="1" font-family="Times,Times_MSFontService,sans-serif" font-style="normal" font-variant="normal" font-weight="400" font-stretch="normal" font-size="14" text-anchor="start" direction="ltr" writing-mode="lr-tb" unicode-bidi="normal" text-decoration="none" transform="matrix(1.04248 0 0 1.03896 683.291 118)">1.9</text><path d="M573.507-91.4286C573.507-81.1001 565.134-72.7273 554.805-72.7273 544.477-72.7273 536.104-81.1001 536.104-91.4286 536.104-101.757 544.477-110.13 554.805-110.13 565.134-110.13 573.507-101.757 573.507-91.4286Z" stroke="#000000" stroke-width="1.03896" stroke-linecap="butt" stroke-linejoin="miter" stroke-miterlimit="4" stroke-opacity="1" fill="none" fill-rule="nonzero" transform="matrix(1.00339 0 0 1 449.775 173.844)"/><text fill="#000000" fill-opacity="1" font-family="Times,Times_MSFontService,sans-serif" font-style="normal" font-variant="normal" font-weight="400" font-stretch="normal" font-size="14" text-anchor="start" direction="ltr" writing-mode="lr-tb" unicode-bidi="normal" text-decoration="none" transform="matrix(1.04248 0 0 1.03896 1002.29 86)">F</text><path d="M209.39-92.3041C225.182-109.534 254.729-136.104 286.753-136.104 286.753-136.104 286.753-136.104 465.455-136.104 489.892-136.104 514.498-122.569 531.682-110.399" stroke="#000000" stroke-width="1.03896" stroke-linecap="butt" stroke-linejoin="miter" stroke-miterlimit="4" stroke-opacity="1" fill="none" fill-rule="nonzero" transform="matrix(1.00339 0 0 1 449.775 173.844)"/><path d="M534.271-113.005 540.418-103.873 529.918-107.178 534.271-113.005Z" stroke="#000000" stroke-width="1.03896" stroke-linecap="butt" stroke-linejoin="miter" stroke-miterlimit="4" stroke-opacity="1" fill="#000000" fill-rule="nonzero" fill-opacity="1" transform="matrix(1.00339 0 0 1 449.775 173.844)"/><text fill="#000000" fill-opacity="1" font-family="Times,Times_MSFontService,sans-serif" font-style="normal" font-variant="normal" font-weight="400" font-stretch="normal" font-size="14" text-anchor="start" direction="ltr" writing-mode="lr-tb" unicode-bidi="normal" text-decoration="none" transform="matrix(1.04248 0 0 1.03896 817.771 34)">6.2</text><path d="M394.805-45.7143C394.805-35.3858 386.432-27.013 376.104-27.013 365.775-27.013 357.403-35.3858 357.403-45.7143 357.403-56.0427 365.775-64.4156 376.104-64.4156 386.432-64.4156 394.805-56.0427 394.805-45.7143Z" stroke="#000000" stroke-width="1.03896" stroke-linecap="butt" stroke-linejoin="miter" stroke-miterlimit="4" stroke-opacity="1" fill="none" fill-rule="nonzero" transform="matrix(1.00339 0 0 1 449.775 173.844)"/><text fill="#000000" fill-opacity="1" font-family="Times,Times_MSFontService,sans-serif" font-style="normal" font-variant="normal" font-weight="400" font-stretch="normal" font-size="14" text-anchor="start" direction="ltr" writing-mode="lr-tb" unicode-bidi="normal" text-decoration="none" transform="matrix(1.04248 0 0 1.03896 822.462 132)">E</text><path d="M216.163-74.7181C243.246-70.0687 294.859-61.1171 338.701-52.987 341.472-52.4732 344.355-51.9291 347.238-51.379" stroke="#000000" stroke-width="1.03896" stroke-linecap="butt" stroke-linejoin="miter" stroke-miterlimit="4" stroke-opacity="1" fill="none" fill-rule="nonzero" transform="matrix(1.00339 0 0 1 449.775 173.844)"/><path d="M347.96-54.9434 357.471-49.4033 346.581-47.8025 347.96-54.9434Z" stroke="#000000" stroke-width="1.03896" stroke-linecap="butt" stroke-linejoin="miter" stroke-miterlimit="4" stroke-opacity="1" fill="#000000" fill-rule="nonzero" fill-opacity="1" transform="matrix(1.00339 0 0 1 449.775 173.844)"/><text fill="#000000" fill-opacity="1" font-family="Times,Times_MSFontService,sans-serif" font-style="normal" font-variant="normal" font-weight="400" font-stretch="normal" font-size="14" text-anchor="start" direction="ltr" writing-mode="lr-tb" unicode-bidi="normal" text-decoration="none" transform="matrix(1.04248 0 0 1.03896 728.118 105)">3.0</text><path d="M216.104-18.7013C216.104-8.37286 207.731 0 197.403 0 187.074 0 178.701-8.37286 178.701-18.7013 178.701-29.0297 187.074-37.4026 197.403-37.4026 207.731-37.4026 216.104-29.0297 216.104-18.7013Z" stroke="#000000" stroke-width="1.03896" stroke-linecap="butt" stroke-linejoin="miter" stroke-miterlimit="4" stroke-opacity="1" fill="none" fill-rule="nonzero" transform="matrix(1.00339 0 0 1 449.775 173.844)"/><text fill="#000000" fill-opacity="1" font-family="Times,Times_MSFontService,sans-serif" font-style="normal" font-variant="normal" font-weight="400" font-stretch="normal" font-size="14" text-anchor="start" direction="ltr" writing-mode="lr-tb" unicode-bidi="normal" text-decoration="none" transform="matrix(1.04248 0 0 1.03896 642.634 159)">D</text><path d="M127.001-18.7013C138.847-18.7013 154.354-18.7013 167.798-18.7013" stroke="#000000" stroke-width="1.03896" stroke-linecap="butt" stroke-linejoin="miter" stroke-miterlimit="4" stroke-opacity="1" fill="none" fill-rule="nonzero" transform="matrix(1.00339 0 0 1 449.775 173.844)"/><path d="M168.091-22.3378 178.481-18.7013 168.091-15.065 168.091-22.3378Z" stroke="#000000" stroke-width="1.03896" stroke-linecap="butt" stroke-linejoin="miter" stroke-miterlimit="4" stroke-opacity="1" fill="#000000" fill-rule="nonzero" fill-opacity="1" transform="matrix(1.00339 0 0 1 449.775 173.844)"/><text fill="#000000" fill-opacity="1" font-family="Times,Times_MSFontService,sans-serif" font-style="normal" font-variant="normal" font-weight="400" font-stretch="normal" font-size="14" text-anchor="start" direction="ltr" writing-mode="lr-tb" unicode-bidi="normal" text-decoration="none" transform="matrix(1.04248 0 0 1.03896 593.638 151)">4.6</text><path d="M215.971-14.9849C221.957-13.954 228.638-12.978 234.805-12.4675 242.225-11.8534 250.22-12.2717 257.659-13.1242" stroke="#000000" stroke-width="1.03896" stroke-linecap="butt" stroke-linejoin="miter" stroke-miterlimit="4" stroke-opacity="1" fill="none" fill-rule="nonzero" transform="matrix(1.00339 0 0 1 449.775 173.844)"/><path d="M257.231-16.7361 268.032-14.6141 258.265-9.53735 257.231-16.7361Z" stroke="#000000" stroke-width="1.03896" stroke-linecap="butt" stroke-linejoin="miter" stroke-miterlimit="4" stroke-opacity="1" fill="#000000" fill-rule="nonzero" fill-opacity="1" transform="matrix(1.00339 0 0 1 449.775 173.844)"/><text fill="#000000" fill-opacity="1" font-family="Times,Times_MSFontService,sans-serif" font-style="normal" font-variant="normal" font-weight="400" font-stretch="normal" font-size="14" text-anchor="start" direction="ltr" writing-mode="lr-tb" unicode-bidi="normal" text-decoration="none" transform="matrix(1.04248 0 0 1.03896 683.291 157)">1.4</text><path d="M304.834-24.1678C317.188-27.9024 333.806-32.9265 347.888-37.1839" stroke="#000000" stroke-width="1.03896" stroke-linecap="butt" stroke-linejoin="miter" stroke-miterlimit="4" stroke-opacity="1" fill="none" fill-rule="nonzero" transform="matrix(1.00339 0 0 1 449.775 173.844)"/><path d="M347.052-40.73 358.049-40.2559 349.156-33.7684 347.052-40.73Z" stroke="#000000" stroke-width="1.03896" stroke-linecap="butt" stroke-linejoin="miter" stroke-miterlimit="4" stroke-opacity="1" fill="#000000" fill-rule="nonzero" fill-opacity="1" transform="matrix(1.00339 0 0 1 449.775 173.844)"/><text fill="#000000" fill-opacity="1" font-family="Times,Times_MSFontService,sans-serif" font-style="normal" font-variant="normal" font-weight="400" font-stretch="normal" font-size="14" text-anchor="start" direction="ltr" writing-mode="lr-tb" unicode-bidi="normal" text-decoration="none" transform="matrix(1.04248 0 0 1.03896 772.944 137)">3.9</text><path d="M484.156-28.0519C484.156-17.7235 475.783-9.35065 465.455-9.35065 455.126-9.35065 446.753-17.7235 446.753-28.0519 446.753-38.3804 455.126-46.7532 465.455-46.7532 475.783-46.7532 484.156-38.3804 484.156-28.0519Z" stroke="#000000" stroke-width="1.03896" stroke-linecap="butt" stroke-linejoin="miter" stroke-miterlimit="4" stroke-opacity="1" fill="none" fill-rule="nonzero" transform="matrix(1.00339 0 0 1 449.775 173.844)"/><text fill="#000000" fill-opacity="1" font-family="Times,Times_MSFontService,sans-serif" font-style="normal" font-variant="normal" font-weight="400" font-stretch="normal" font-size="14" text-anchor="start" direction="ltr" writing-mode="lr-tb" unicode-bidi="normal" text-decoration="none" transform="matrix(1.04248 0 0 1.03896 911.594 150)">H</text><path d="M304.723-12.5699C326.163-6.03345 363.096 2.76114 394.805-2.07792 409.892-4.38026 425.916-9.98722 438.883-15.4047" stroke="#000000" stroke-width="1.03896" stroke-linecap="butt" stroke-linejoin="miter" stroke-miterlimit="4" stroke-opacity="1" fill="none" fill-rule="nonzero" transform="matrix(1.00339 0 0 1 449.775 173.844)"/><path d="M437.575-18.8016 448.551-19.642 440.495-12.1406 437.575-18.8016Z" stroke="#000000" stroke-width="1.03896" stroke-linecap="butt" stroke-linejoin="miter" stroke-miterlimit="4" stroke-opacity="1" fill="#000000" fill-rule="nonzero" fill-opacity="1" transform="matrix(1.00339 0 0 1 449.775 173.844)"/><text fill="#000000" fill-opacity="1" font-family="Times,Times_MSFontService,sans-serif" font-style="normal" font-variant="normal" font-weight="400" font-stretch="normal" font-size="14" text-anchor="start" direction="ltr" writing-mode="lr-tb" unicode-bidi="normal" text-decoration="none" transform="matrix(1.04248 0 0 1.03896 817.771 168)">2.7</text><path d="M547.135-108.742C545.431-119.091 547.988-128.831 554.805-128.831 559.173-128.831 561.792-124.833 562.662-119.239" stroke="#000000" stroke-width="1.03896" stroke-linecap="butt" stroke-linejoin="miter" stroke-miterlimit="4" stroke-opacity="1" fill="none" fill-rule="nonzero" transform="matrix(1.00339 0 0 1 449.775 173.844)"/><path d="M566.296-119.065 562.476-108.742 559.024-119.195 566.296-119.065Z" stroke="#000000" stroke-width="1.03896" stroke-linecap="butt" stroke-linejoin="miter" stroke-miterlimit="4" stroke-opacity="1" fill="#000000" fill-rule="nonzero" fill-opacity="1" transform="matrix(1.00339 0 0 1 449.775 173.844)"/><text fill="#000000" fill-opacity="1" font-family="Times,Times_MSFontService,sans-serif" font-style="normal" font-variant="normal" font-weight="400" font-stretch="normal" font-size="14" text-anchor="start" direction="ltr" writing-mode="lr-tb" unicode-bidi="normal" text-decoration="none" transform="matrix(1.04248 0 0 1.03896 997.078 41)">2.0</text><path d="M536.329-87.9686C509.166-82.7125 456.964-71.9681 413.507-59.2208 410.362-58.2984 407.097-57.2536 403.866-56.1636" stroke="#000000" stroke-width="1.03896" stroke-linecap="butt" stroke-linejoin="miter" stroke-miterlimit="4" stroke-opacity="1" fill="none" fill-rule="nonzero" transform="matrix(1.00339 0 0 1 449.775 173.844)"/><path d="M404.848-52.6541 393.84-52.622 402.425-59.5115 404.848-52.6541Z" stroke="#000000" stroke-width="1.03896" stroke-linecap="butt" stroke-linejoin="miter" stroke-miterlimit="4" stroke-opacity="1" fill="#000000" fill-rule="nonzero" fill-opacity="1" transform="matrix(1.00339 0 0 1 449.775 173.844)"/><text fill="#000000" fill-opacity="1" font-family="Times,Times_MSFontService,sans-serif" font-style="normal" font-variant="normal" font-weight="400" font-stretch="normal" font-size="14" text-anchor="start" direction="ltr" writing-mode="lr-tb" unicode-bidi="normal" text-decoration="none" transform="matrix(1.04248 0 0 1.03896 907.424 93)">8.6</text><path d="M368.433-63.0276C366.729-73.3766 369.286-83.1169 376.104-83.1169 380.472-83.1169 383.091-79.1195 383.961-73.5254" stroke="#000000" stroke-width="1.03896" stroke-linecap="butt" stroke-linejoin="miter" stroke-miterlimit="4" stroke-opacity="1" fill="none" fill-rule="nonzero" transform="matrix(1.00339 0 0 1 449.775 173.844)"/><path d="M387.595-73.3509 383.775-63.0276 380.323-73.4802 387.595-73.3509Z" stroke="#000000" stroke-width="1.03896" stroke-linecap="butt" stroke-linejoin="miter" stroke-miterlimit="4" stroke-opacity="1" fill="#000000" fill-rule="nonzero" fill-opacity="1" transform="matrix(1.00339 0 0 1 449.775 173.844)"/><text fill="#000000" fill-opacity="1" font-family="Times,Times_MSFontService,sans-serif" font-style="normal" font-variant="normal" font-weight="400" font-stretch="normal" font-size="14" text-anchor="start" direction="ltr" writing-mode="lr-tb" unicode-bidi="normal" text-decoration="none" transform="matrix(1.04248 0 0 1.03896 817.771 87)">1.0</text><path d="M394.93-43.1023C404.826-41.6286 417.136-39.6362 428.052-37.4026 431.003-36.7989 434.072-36.1184 437.126-35.407" stroke="#000000" stroke-width="1.03896" stroke-linecap="butt" stroke-linejoin="miter" stroke-miterlimit="4" stroke-opacity="1" fill="none" fill-rule="nonzero" transform="matrix(1.00339 0 0 1 449.775 173.844)"/><path d="M438.031-38.9292 447.263-32.9347 436.309-31.8637 438.031-38.9292Z" stroke="#000000" stroke-width="1.03896" stroke-linecap="butt" stroke-linejoin="miter" stroke-miterlimit="4" stroke-opacity="1" fill="#000000" fill-rule="nonzero" fill-opacity="1" transform="matrix(1.00339 0 0 1 449.775 173.844)"/><text fill="#000000" fill-opacity="1" font-family="Times,Times_MSFontService,sans-serif" font-style="normal" font-variant="normal" font-weight="400" font-stretch="normal" font-size="14" text-anchor="start" direction="ltr" writing-mode="lr-tb" unicode-bidi="normal" text-decoration="none" transform="matrix(1.04248 0 0 1.03896 862.598 130)">4.4</text><path d="M481.669-37.7976C492.069-44.2022 505.756-52.9185 517.403-61.2987 522.31-64.8295 527.437-68.7769 532.267-72.6219" stroke="#000000" stroke-width="1.03896" stroke-linecap="butt" stroke-linejoin="miter" stroke-miterlimit="4" stroke-opacity="1" fill="none" fill-rule="nonzero" transform="matrix(1.00339 0 0 1 449.775 173.844)"/><path d="M530.166-75.6001 540.526-79.3199 534.747-69.9514 530.166-75.6001Z" stroke="#000000" stroke-width="1.03896" stroke-linecap="butt" stroke-linejoin="miter" stroke-miterlimit="4" stroke-opacity="1" fill="#000000" fill-rule="nonzero" fill-opacity="1" transform="matrix(1.00339 0 0 1 449.775 173.844)"/><text fill="#000000" fill-opacity="1" font-family="Times,Times_MSFontService,sans-serif" font-style="normal" font-variant="normal" font-weight="400" font-stretch="normal" font-size="14" text-anchor="start" direction="ltr" writing-mode="lr-tb" unicode-bidi="normal" text-decoration="none" transform="matrix(1.04248 0 0 1.03896 952.251 109)">5.1</text><path d="M448.332-20.2311C438.069-16.6196 424.85-13.8814 413.507-17.6623 408.063-19.4768 402.774-22.4279 397.97-25.7498" stroke="#000000" stroke-width="1.03896" stroke-linecap="butt" stroke-linejoin="miter" stroke-miterlimit="4" stroke-opacity="1" fill="none" fill-rule="nonzero" transform="matrix(1.00339 0 0 1 449.775 173.844)"/><path d="M395.389-23.1492 389.413-32.3931 399.849-28.8937 395.389-23.1492Z" stroke="#000000" stroke-width="1.03896" stroke-linecap="butt" stroke-linejoin="miter" stroke-miterlimit="4" stroke-opacity="1" fill="#000000" fill-rule="nonzero" fill-opacity="1" transform="matrix(1.00339 0 0 1 449.775 173.844)"/><text fill="#000000" fill-opacity="1" font-family="Times,Times_MSFontService,sans-serif" font-style="normal" font-variant="normal" font-weight="400" font-stretch="normal" font-size="14" text-anchor="start" direction="ltr" writing-mode="lr-tb" unicode-bidi="normal" text-decoration="none" transform="matrix(1.04248 0 0 1.03896 862.598 152)">1.7</text></g></g></g></g></svg>
