<svg xmlns="http://www.w3.org/2000/svg" xmlns:xlink="http://www.w3.org/1999/xlink" width="586" height="161" overflow="hidden"><style><![CDATA[.B{stroke:#000}.C{fill:none}.D{stroke-width:1.041}.E{fill:#000}.F{font-family:Times,Times_MSFontService,sans-serif}.G{font-size:14px}.H{direction:ltr}.I{writing-mode:lr-tb}.J{unicode-bidi:normal}]]></style><defs><clipPath id="A"><path d="M444 17h586v161H444z"/></clipPath><clipPath id="B"><path d="M445 18h585v160H445z"/></clipPath><clipPath id="C"><path d="M445 18h585v160H445z"/></clipPath><clipPath id="D"><path d="M445 18h585v160H445z"/></clipPath><path id="E" d="M576.958 155.143c0 10.328-8.401 18.701-18.764 18.701s-18.765-8.373-18.765-18.701 8.401-18.701 18.765-18.701 18.764 8.373 18.764 18.701z"/></defs><g clip-path="url(#A)" transform="translate(-444 -17)"><g clip-path="url(#B)"><g clip-path="url(#C)"><g clip-path="url(#D)"><path d="M445.605 178V18h583.79v160h-583.79z" fill="#fff"/><path d="M487.304 126.052c0 10.328-8.401 18.701-18.765 18.701s-18.765-8.373-18.765-18.701 8.401-18.701 18.765-18.701 18.765 8.373 18.765 18.701z" class="B C D"/><text transform="matrix(1.04248 0 0 1.03896 463.327 130)" class="E F G H I J">A</text><path d="M666.612 95.922c0 10.329-8.401 18.701-18.764 18.701s-18.765-8.373-18.765-18.701 8.401-18.701 18.765-18.701 18.764 8.373 18.764 18.701z" class="B C D"/><text transform="matrix(1.04248 0 0 1.03896 643.155 100)" class="E F G H I J">C</text><g class="B D"><path d="M487.053 122.941l131.454-22.089" class="C"/><path d="M618.279 97.203l10.886 1.858-9.673 5.313-1.213-7.171z"/></g><text transform="matrix(1.04248 0 0 1.03896 548.811 104)" class="E F G H I J">5.0</text><use xlink:href="#E" class="B C D"/><text transform="matrix(1.04248 0 0 1.03896 553.502 159)" class="E F G H I J">B</text><g class="B D"><path d="M486.682 131.939l43.199 14.017" class="C"/><path d="M531.295 142.59l8.783 6.674-11.042.241 2.259-6.915z"/></g><text transform="matrix(1.04248 0 0 1.03896 503.984 136)" class="E F G H I J">2.3</text><path d="M756.265 155.143c0 10.328-8.401 18.701-18.765 18.701s-18.764-8.373-18.764-18.701 8.401-18.701 18.764-18.701 18.765 8.373 18.765 18.701z" class="B C D"/><text transform="matrix(1.04248 0 0 1.03896 732.288 159)" class="E F G H I J">G</text><g class="B D"><path d="M663.46 106.922l21.916 14.974 27.185 17.608" class="C"/><path d="M714.583 136.475l6.848 8.636-10.757-2.495 3.909-6.141z"/></g><text transform="matrix(1.04248 0 0 1.03896 683.291 118)" class="E F G H I J">1.9</text><path d="M1025.226 82.415c0 10.329-8.401 18.701-18.765 18.701s-18.764-8.373-18.764-18.701 8.401-18.701 18.764-18.701 18.765 8.373 18.765 18.701z" class="B C D"/><text transform="matrix(1.04248 0 0 1.03896 1002.29 86)" class="E F G H I J">F</text><g class="B D"><path d="M659.875 81.54c15.846-17.23 45.493-43.8 77.625-43.8h179.308c24.52 0 49.209 13.535 66.452 25.705" class="C"/><path d="M985.857 60.839l6.168 9.132-10.536-3.305 4.368-5.827z"/></g><text transform="matrix(1.04248 0 0 1.03896 817.771 34)" class="E F G H I J">6.2</text><path d="M845.918 128.13c0 10.328-8.401 18.701-18.764 18.701s-18.764-8.373-18.764-18.701 8.4-18.701 18.764-18.701 18.764 8.373 18.764 18.701z" class="B C D"/><text transform="matrix(1.04248 0 0 1.03896 822.462 132)" class="E F G H I J">E</text><g class="B D"><path d="M666.671 99.126l122.953 21.731 8.566 1.608" class="C"/><path d="M798.915 118.901l9.543 5.54-10.927 1.601 1.384-7.141z"/></g><text transform="matrix(1.04248 0 0 1.03896 728.118 105)" class="E F G H I J">3.0</text><path d="M666.612 155.143c0 10.328-8.401 18.701-18.764 18.701s-18.765-8.373-18.765-18.701 8.401-18.701 18.765-18.701 18.764 8.373 18.764 18.701z" class="B C D"/><text transform="matrix(1.04248 0 0 1.03896 642.634 159)" class="E F G H I J">D</text><g class="B D"><path d="M577.207 155.143h40.935" class="C"/><path d="M618.436 151.506l10.425 3.637-10.425 3.636v-7.273z"/></g><text transform="matrix(1.04248 0 0 1.03896 593.638 151)" class="E F G H I J">4.6</text><g class="B D"><path d="M666.478 158.859c6.006 1.031 12.71 2.007 18.898 2.517 7.445.614 15.467.196 22.931-.657" class="C"/><path d="M707.878 157.108l10.838 2.122-9.8 5.077-1.038-7.199z"/></g><text transform="matrix(1.04248 0 0 1.03896 683.291 157)" class="E F G H I J">1.4</text><g class="B D"><path d="M755.642 149.676l43.2-13.016" class="C"/><path d="M798.004 133.114l11.034.474-8.923 6.488-2.111-6.962z"/></g><text transform="matrix(1.04248 0 0 1.03896 772.944 137)" class="E F G H I J">3.9</text><path d="M935.572 145.792c0 10.328-8.401 18.701-18.764 18.701s-18.765-8.373-18.765-18.701 8.401-18.701 18.765-18.701 18.764 8.373 18.764 18.701z" class="B C D"/><text transform="matrix(1.04248 0 0 1.03896 911.594 150)" class="E F G H I J">H</text><g class="B D"><path d="M755.531 161.274c21.513 6.536 58.571 15.331 90.387 10.492 15.138-2.302 31.216-7.909 44.227-13.327" class="C"/><path d="M888.833 155.042l11.013-.84-8.083 7.501-2.93-6.661z"/></g><text transform="matrix(1.04248 0 0 1.03896 817.771 168)" class="E F G H I J">2.7</text><g class="B D"><path d="M998.765 65.102c-1.71-10.349.856-20.089 7.696-20.089 4.383 0 7.011 3.998 7.884 9.592" class="C"/><path d="M1017.991 54.779l-3.833 10.323-3.464-10.453 7.297.13z"/></g><text transform="matrix(1.04248 0 0 1.03896 997.078 41)" class="E F G H I J">2.0</text><g class="B D"><path d="M987.922 85.875c-27.255 5.256-79.634 16-123.238 28.748-3.156.922-6.432 1.967-9.674 3.057" class="C"/><path d="M855.995 121.19l-11.045.032 8.614-6.889 2.431 6.857z"/></g><text transform="matrix(1.04248 0 0 1.03896 907.424 93)" class="E F G H I J">8.6</text><g class="B D"><path d="M819.457 110.816c-1.71-10.349.856-20.089 7.697-20.089 4.383 0 7.011 3.997 7.884 9.591" class="C"/><path d="M838.684 100.493l-3.833 10.323-3.464-10.453 7.297.129z"/></g><text transform="matrix(1.04248 0 0 1.03896 817.771 87)" class="E F G H I J">1.0</text><g class="B D"><path d="M846.044 130.742c9.93 1.474 22.281 3.466 33.234 5.7l9.105 1.996" class="C"/><path d="M889.291 134.915l9.263 5.995-10.991 1.071 1.728-7.066z"/></g><text transform="matrix(1.04248 0 0 1.03896 862.598 130)" class="E F G H I J">4.4</text><g class="B D"><path d="M933.077 136.046c10.435-6.405 24.169-15.121 35.855-23.501 4.924-3.531 10.068-7.478 14.914-11.323" class="C"/><path d="M981.738 98.244l10.395-3.72-5.799 9.368-4.597-5.649z"/></g><text transform="matrix(1.04248 0 0 1.03896 952.251 109)" class="E F G H I J">5.1</text><g class="B D"><path d="M899.627 153.613c-10.298 3.612-23.562 6.35-34.943 2.569-5.462-1.815-10.769-4.766-15.59-8.088" class="C"/><path d="M846.504 150.695l-5.996-9.244 10.471 3.499-4.475 5.744z"/></g><text transform="matrix(1.04248 0 0 1.03896 862.598 152)" class="E F G H I J">1.7</text></g></g></g></g></svg>
