<svg xmlns="http://www.w3.org/2000/svg" xmlns:xlink="http://www.w3.org/1999/xlink" width="486.186" height="134.742" xmlns:v="https://vecta.io/nano"><g transform="scale(.8517139588245333)"><svg width="179.091" height="158.201" viewBox="-95 -95 179.091 158.201"><g stroke="#409dc1" stroke-width="12"><path d="M48.977-47.215l-69.282 15.307v73.91l69.282-15.307V-10.26L14.336-2.606" fill="none"/><path d="M-20.305-33.907l-40-26.513"/></g><g fill="#ff8552"><circle cx="-60.305" cy="-60.42" r="17"/><circle cx="-20.305" cy="-33.907" r="17"/><circle cx="48.977" cy="-49.215" r="17"/><circle cx="-20.305" cy="40.003" r="17"/><circle cx="48.977" cy="24.696" r="17"/><circle cx="48.977" cy="-12.259" r="11"/><circle cx="14.336" cy="-4.606" r="11"/></g><path d="M-86.223-86.118V54.424h21.316q3.135 0 4.493 1.149 1.358 1.254 1.358 3.239 0 1.985-1.358 3.135-1.358 1.254-4.493 1.254H-95V-95h30.094q3.135 0 4.493 1.254 1.358 1.254 1.358 3.239 0 1.881-1.358 3.135-1.358 1.254-4.493 1.254zM75.209 54.424V-86.118H53.997q-3.135 0-4.493-1.254-1.358-1.254-1.358-3.135 0-1.985 1.358-3.239Q50.862-95 53.997-95h30.094V63.201H53.997q-3.135 0-4.493-1.254-1.358-1.149-1.358-3.135 0-1.881 1.358-3.135 1.358-1.254 4.493-1.254z" fill="#409dc1"/></svg></g><g transform="translate(167.506 22.457)"><svg width="318.68" height="89.828" viewBox="0 0 41.983 11.883"><g fill="#848487" stroke="#848487"><path d="M3.501 1.189q-.172 0-.328.031-.156.031-.333.107v1.236q.095.071.265.116.17.045.395.045.344 0 .516-.22.172-.22.172-.566 0-.362-.184-.555-.184-.195-.505-.195zM2.804.974q.016.078.028.142.242-.093.412-.133.17-.04.342-.04.477 0 .733.271.258.271.258.733 0 .437-.284.731-.281.293-.747.293-.261 0-.433-.045-.17-.047-.272-.111v.948h-.368v-2.5q-.005-.124-.021-.289zm3.275 1.572L6.74.974h.398L6.135 3.088q-.084.169-.172.297-.088.127-.198.215-.107.089-.256.135-.147.047-.363.047-.17 0-.377-.035l.067-.275q.142.045.298.045.147 0 .247-.036.1-.035.174-.102.074-.067.13-.166.058-.098.119-.224.035-.064.063-.18L4.923.974h.395zM7.312.974h.363V.477h.368v.497h.612l-.04.249h-.572v1.135q0 .169.07.271.072.102.223.102.081 0 .205-.018.123-.02.163-.029l.028.249q-.047.007-.198.022-.149.016-.235.016-.295 0-.461-.115-.163-.115-.163-.424v-1.21h-.363zM9.224.088h.368v1.037q.126-.058.33-.12.207-.062.468-.062.395 0 .605.178.212.178.212.482v1.336h-.368l.002-1.319q0-.209-.133-.326-.133-.116-.414-.116-.177 0-.363.047-.186.047-.34.111v1.603h-.368zm3.795 2.653q.193 0 .337-.071.144-.071.286-.257.144-.186.144-.504 0-.278-.198-.506-.195-.229-.575-.229-.379 0-.586.218-.205.218-.205.571 0 .302.147.469.149.167.298.238.151.069.351.069zm.016.231q-.591 0-.893-.286-.302-.286-.302-.757 0-.422.323-.704.323-.282.861-.282.549 0 .847.293.3.293.3.73 0 .415-.314.711-.314.295-.821.295zm1.788-1.745q0-.118-.021-.253h.356q.021.08.028.175.161-.082.391-.144.233-.062.463-.062.356 0 .563.162.209.162.209.46v1.374h-.368v-1.35q0-.177-.119-.293-.119-.118-.335-.118-.216 0-.428.051-.212.051-.372.131v1.579h-.368zm3.872.278l-.058.224h-1.224l.058-.224z" stroke-width=".184"/><g stroke-width=".149"><path d="M2.199 7.528q.289 0 .489-.093.205-.098.335-.275.13-.177.186-.424.061-.247.061-.55 0-.228-.065-.438-.065-.214-.2-.373-.13-.158-.335-.252-.205-.098-.484-.098-.34 0-.564.112-.224.107-.359.284-.135.177-.191.401-.056.224-.056.452 0 .233.07.456.075.224.219.401.149.177.368.289.224.107.526.107zM1.114 9.433q-.21.228-.326.456-.112.228-.112.442 0 .284.121.466.121.186.312.293.191.107.429.149.238.042.475.042.13 0 .312-.019.186-.014.382-.051.2-.037.391-.102.196-.061.349-.154.154-.093.247-.224.098-.126.098-.293 0-.163-.102-.293-.098-.126-.265-.224-.163-.098-.391-.177-.224-.079-.769-.182-.363-.056-.568-.075-.2-.023-.354-.033-.154-.014-.228-.023zm3.302-4.215q-.186-.005-.345.019-.158.023-.312.07.116.177.196.405.084.224.084.526 0 .456-.158.792-.158.331-.424.55-.265.214-.61.321-.345.102-.717.102-.317 0-.657-.079-.075.009-.191.051-.116.042-.228.112-.107.07-.186.163-.079.088-.079.196 0 .121.163.191.163.07.429.121.265.047.941.14.713.116 1.048.214.34.093.606.252.266.158.429.387.163.233.163.568 0 .321-.121.554-.121.233-.326.396-.2.168-.466.27-.265.107-.559.168-.293.061-.596.079-.298.023-.568.023-.429 0-.787-.075-.354-.075-.61-.233-.256-.154-.401-.396-.144-.238-.144-.568 0-.177.061-.354.065-.172.172-.331.112-.158.252-.293.144-.135.303-.242-.126-.061-.247-.126-.121-.07-.219-.154-.093-.088-.154-.2-.061-.116-.061-.27 0-.168.098-.307.102-.14.247-.252.149-.112.312-.186.163-.075.289-.107-.391-.224-.592-.568-.2-.349-.2-.871 0-.424.168-.75.172-.331.447-.55.275-.219.629-.331.354-.116.722-.116.321 0 .643.088.321.088.601.265.363-.14.703-.196.345-.056.652-.056l-.084.596zm1.756-.61q.033.121.047.326.019.2.019.526.359-.429.838-.68.484-.252 1.006-.252.061 0 .126.009.07.009.102.019l-.158.769q-.14-.037-.354-.037-.619 0-1.029.279-.41.279-.526.55v3.521h-.736V5.302q-.009-.601-.028-.694z"/><use xlink:href="#A"/><path d="M16.503 5.158q-.345 0-.657.079-.312.079-.666.275v3.163q.191.182.531.298.34.116.792.116.689 0 1.034-.564.345-.564.345-1.449 0-.927-.368-1.421-.368-.498-1.011-.498zm-1.397-.55q.033.2.056.363.484-.238.824-.34.34-.102.685-.102.955 0 1.467.694.517.694.517 1.877 0 1.118-.568 1.872-.564.75-1.495.75-.522 0-.866-.116-.34-.121-.545-.284v2.427h-.736v-6.4q-.009-.317-.042-.741zm4.779-2.268h.736v2.655q.252-.149.661-.307.415-.158.936-.158.792 0 1.211.456.424.456.424 1.234v3.419h-.736l.005-3.377q0-.536-.265-.834-.265-.298-.829-.298-.354 0-.727.121-.373.121-.68.284v4.103h-.736zm6.12 6.628q.373.191 1.029.191.89 0 1.29-.606.405-.61.405-1.425 0-.96-.373-1.463-.373-.508-1.025-.508-.391 0-.75.116-.354.116-.578.284zm-.736-6.628h.736v2.683q.224-.191.606-.34.387-.154.904-.154.964 0 1.477.671.517.671.517 1.844 0 1.234-.601 1.952-.601.717-2.021.717-.331 0-.796-.037-.466-.033-.82-.075zm5.422 0h.736v6.269q0 .284.112.387.112.102.391.102.037 0 .107-.005.075-.005.149-.014l.107.429q-.084.037-.186.075-.102.037-.214.065-.112.033-.224.047-.112.019-.21.019-.363 0-.568-.233-.2-.233-.2-.694z"/><use xlink:href="#A" x="24.043"/><path d="M38.624 8.423q.317.345.652.536.335.191.843.191.512 0 .843-.214.331-.219.331-.596 0-.261-.168-.447-.168-.191-.675-.373-.191-.065-.75-.256-.526-.14-.987-.475-.461-.335-.461-.95 0-.587.498-.946.498-.363 1.29-.363.279 0 .517.033.242.028.452.098.214.07.401.182.191.112.368.279l-.424.508q-.317-.275-.619-.401-.298-.126-.685-.126-.475 0-.787.177-.307.177-.307.517 0 .326.289.522.289.191.685.307.21.065.415.135.205.07.415.135.661.238.95.559.289.321.289.843 0 .652-.536 1.039-.536.387-1.323.387-.615 0-1.09-.154-.47-.158-.913-.615z"/></g></g><defs><path id="A" d="M11.957 7.002q-.633.014-1.09.116-.456.098-.75.27-.293.172-.433.405-.14.233-.14.512 0 .396.224.582.224.186.619.186.214 0 .424-.047.214-.047.415-.126.2-.079.382-.186.186-.112.349-.238zm-2.93-1.77q.172-.158.401-.289.233-.13.489-.224.261-.093.536-.14.279-.051.554-.051.773 0 1.23.387.456.387.456 1.076v2.24q0 .275.019.452.019.177.065.279.051.102.13.144.084.037.21.037.158 0 .321-.033l.116.34q-.126.121-.359.196-.228.075-.494.075-.293 0-.475-.205-.177-.21-.228-.596-.396.368-.866.587-.466.214-1.001.214-.293 0-.55-.084-.252-.088-.438-.252-.186-.163-.293-.401-.102-.238-.102-.54 0-.405.154-.703.158-.298.415-.508.256-.21.587-.34.335-.13.689-.205.359-.075.713-.098.354-.028.652-.028v-.517q0-.494-.256-.717-.256-.224-.717-.224-.261 0-.489.061-.224.061-.419.154-.196.093-.359.205-.163.112-.293.214z"/></defs></svg></g></svg>