<?xml version="1.0" encoding="UTF-8"?>
<svg width="159.34" height="44.914" version="1.1" viewBox="0 0 41.983 11.883" xmlns="http://www.w3.org/2000/svg">
<g transform="scale(1.1307 .88441)" stroke="#000" stroke-width=".17557" aria-label="python-">
<path d="m3.0967 1.344q-0.15225 0-0.2901 0.034976t-0.29421 0.12139v1.397q0.084355 0.08024 0.23455 0.13168 0.15019 0.051436 0.34976 0.051436 0.3045 0 0.45675-0.24895 0.15225-0.24895 0.15225-0.63986 0-0.40943-0.16254-0.62752-0.16254-0.22015-0.44646-0.22015zm-0.61723-0.24278q0.014402 0.08847 0.024689 0.16048 0.21397-0.10493 0.36417-0.15019 0.15019-0.045264 0.30244-0.045264 0.42178 0 0.64809 0.30656 0.22838 0.30656 0.22838 0.82915 0 0.49379-0.25101 0.82709-0.24895 0.33125-0.66044 0.33125-0.23043 0-0.38268-0.051436-0.15019-0.053493-0.24072-0.1255v1.0719h-0.32508v-2.8269q-0.0041149-0.13991-0.018517-0.32713z"/>
<path d="m5.3764 2.8789 0.58431-1.7776h0.35182l-0.88676 2.3907q-0.074068 0.19134-0.15225 0.33536t-0.17488 0.24278q-0.094642 0.10081-0.22632 0.15225-0.12962 0.053493-0.32096 0.053493-0.15019 0-0.33331-0.039091l0.059666-0.31067q0.1255 0.051436 0.26335 0.051436 0.12962 0 0.21809-0.041149 0.08847-0.039091 0.15431-0.11522 0.065838-0.076125 0.11522-0.18723 0.051436-0.1111 0.10493-0.25307 0.030862-0.072011 0.055551-0.20369l-0.83532-2.076h0.34977z"/>
<path d="m6.4668 1.1012h0.32096v-0.56168h0.32508v0.56168h0.54111l-0.034976 0.28187h-0.50613v1.2838q0 0.19134 0.061723 0.30656 0.063781 0.11522 0.19751 0.11522 0.07201 0 0.18105-0.020574 0.10904-0.022632 0.14402-0.032919l0.024689 0.28187q-0.041149 0.00823-0.17488 0.024689-0.13168 0.018517-0.2078 0.018517-0.2613 0-0.40737-0.12962-0.14402-0.12962-0.14402-0.47938v-1.3682h-0.32096z"/>
<path d="m8.158 0.099257h0.32508v1.1727q0.1111-0.065838 0.29216-0.13579 0.18311-0.069953 0.41355-0.069953 0.34976 0 0.53493 0.20163 0.18723 0.20163 0.18723 0.54522v1.5102h-0.32508l0.00206-1.4916q0-0.23661-0.11727-0.36828-0.11727-0.13168-0.36622-0.13168-0.15637 0-0.32096 0.053494t-0.30039 0.1255v1.8126h-0.32508z"/>
<path d="m11.514 3.099q0.17077 0 0.29833-0.08024 0.12756-0.08024 0.25306-0.2901 0.12756-0.20986 0.12756-0.56991 0-0.31479-0.17488-0.57197-0.17282-0.25924-0.50819-0.25924t-0.51848 0.24689q-0.18105 0.24689-0.18105 0.64604 0 0.34154 0.12962 0.53082 0.13168 0.18928 0.26335 0.26952 0.13373 0.078183 0.31067 0.078183zm0.0144 0.2613q-0.52259 0-0.79006-0.32302-0.26747-0.32302-0.26747-0.8559 0-0.47733 0.28598-0.79623 0.28598-0.3189 0.76125-0.3189 0.48556 0 0.74891 0.33125 0.26541 0.33125 0.26541 0.82503 0 0.4691-0.27775 0.80446-0.27776 0.33331-0.72628 0.33331z"/>
<path d="m13.11 1.3872q0-0.13373-0.01852-0.28598h0.31479q0.01852 0.090527 0.02469 0.19751 0.14196-0.092585 0.34565-0.16254 0.20574-0.069953 0.40943-0.069953 0.31479 0 0.4979 0.18311 0.18517 0.18311 0.18517 0.52053v1.5534h-0.32507v-1.5266q0-0.19957-0.10493-0.33125-0.10493-0.13373-0.29627-0.13373t-0.37857 0.057608-0.32919 0.14814v1.7859h-0.32508z"/>
<path d="m16.534 1.702-0.05144 0.25307h-1.0822l0.05144-0.25307z"/>
</g>
<g transform="matrix(.14905 0 0 .14905 -.46027 9.6384)" stroke="#000" style="shape-inside:url(#rect1201);white-space:pre" aria-label="graphblas">
<path d="m17.844-14.156q1.9375 0 3.2812-0.625 1.375-0.65625 2.25-1.8438t1.25-2.8438q0.40625-1.6562 0.40625-3.6875 0-1.5312-0.4375-2.9375-0.4375-1.4375-1.3438-2.5-0.875-1.0625-2.25-1.6875-1.375-0.65625-3.25-0.65625-2.2812 0-3.7812 0.75-1.5 0.71875-2.4062 1.9062t-1.2812 2.6875-0.375 3.0312q0 1.5625 0.46875 3.0625 0.5 1.5 1.4688 2.6875 1 1.1875 2.4688 1.9375 1.5 0.71875 3.5312 0.71875zm-7.2812 12.781q-1.4062 1.5312-2.1875 3.0625-0.75 1.5312-0.75 2.9688 0 1.9062 0.8125 3.125 0.8125 1.25 2.0938 1.9688t2.875 1 3.1875 0.28125q0.875 0 2.0938-0.125 1.25-0.09375 2.5625-0.34375 1.3438-0.25 2.625-0.6875 1.3125-0.40625 2.3438-1.0312t1.6562-1.5q0.65625-0.84375 0.65625-1.9688 0-1.0938-0.6875-1.9688-0.65625-0.84375-1.7812-1.5-1.0938-0.65625-2.625-1.1875-1.5-0.53125-5.1562-1.2188-2.4375-0.375-3.8125-0.5-1.3438-0.15625-2.375-0.21875-1.0312-0.09375-1.5312-0.15625zm22.156-28.281q-1.25-0.03125-2.3125 0.125t-2.0938 0.46875q0.78125 1.1875 1.3125 2.7188 0.5625 1.5 0.5625 3.5312 0 3.0625-1.0625 5.3125-1.0625 2.2188-2.8438 3.6875-1.7812 1.4375-4.0938 2.1562-2.3125 0.6875-4.8125 0.6875-2.125 0-4.4062-0.53125-0.5 0.0625-1.2812 0.34375t-1.5312 0.75q-0.71875 0.46875-1.25 1.0938-0.53125 0.59375-0.53125 1.3125 0 0.8125 1.0938 1.2812t2.875 0.8125q1.7812 0.3125 6.3125 0.9375 4.7812 0.78125 7.0312 1.4375 2.2812 0.625 4.0625 1.6875t2.875 2.5938q1.0938 1.5625 1.0938 3.8125 0 2.1562-0.8125 3.7188t-2.1875 2.6562q-1.3438 1.125-3.125 1.8125-1.7812 0.71875-3.75 1.125t-4 0.53125q-2 0.15625-3.8125 0.15625-2.875 0-5.2812-0.5-2.375-0.5-4.0938-1.5625-1.7188-1.0312-2.6875-2.6562-0.96875-1.5938-0.96875-3.8125 0-1.1875 0.40625-2.375 0.4375-1.1562 1.1562-2.2188 0.75-1.0625 1.6875-1.9688 0.96875-0.90625 2.0312-1.625-0.84375-0.40625-1.6562-0.84375-0.8125-0.46875-1.4688-1.0312-0.625-0.59375-1.0312-1.3438-0.40625-0.78125-0.40625-1.8125 0-1.125 0.65625-2.0625 0.6875-0.9375 1.6562-1.6875 1-0.75 2.0938-1.25t1.9375-0.71875q-2.625-1.5-3.9688-3.8125-1.3438-2.3438-1.3438-5.8438 0-2.8438 1.125-5.0312 1.1562-2.2188 3-3.6875t4.2188-2.2188q2.375-0.78125 4.8438-0.78125 2.1562 0 4.3125 0.59375t4.0312 1.7812q2.4375-0.9375 4.7188-1.3125 2.3125-0.375 4.375-0.375l-0.5625 4z"/>
<path d="m44.5-33.75q0.21875 0.8125 0.3125 2.1875 0.125 1.3438 0.125 3.5312 2.4062-2.875 5.625-4.5625 3.25-1.6875 6.75-1.6875 0.40625 0 0.84375 0.0625 0.46875 0.0625 0.6875 0.125l-1.0625 5.1562q-0.9375-0.25-2.375-0.25-4.1562 0-6.9062 1.875t-3.5312 3.6875v23.625h-4.9375v-29.094q-0.0625-4.0312-0.1875-4.6562z"/>
<path d="m83.312-17.688q-4.25 0.09375-7.3125 0.78125-3.0625 0.65625-5.0312 1.8125t-2.9062 2.7188-0.9375 3.4375q0 2.6562 1.5 3.9062t4.1562 1.25q1.4375 0 2.8438-0.3125 1.4375-0.3125 2.7812-0.84375t2.5625-1.25q1.25-0.75 2.3438-1.5938zm-19.656-11.875q1.1562-1.0625 2.6875-1.9375 1.5625-0.875 3.2812-1.5 1.75-0.625 3.5938-0.9375 1.875-0.34375 3.7188-0.34375 5.1875 0 8.25 2.5938t3.0625 7.2188v15.031q0 1.8438 0.125 3.0312t0.4375 1.875q0.34375 0.6875 0.875 0.96875 0.5625 0.25 1.4062 0.25 1.0625 0 2.1562-0.21875l0.78125 2.2812q-0.84375 0.8125-2.4062 1.3125-1.5312 0.5-3.3125 0.5-1.9688 0-3.1875-1.375-1.1875-1.4062-1.5312-4-2.6562 2.4688-5.8125 3.9375-3.125 1.4375-6.7188 1.4375-1.9688 0-3.6875-0.5625-1.6875-0.59375-2.9375-1.6875t-1.9688-2.6875q-0.6875-1.5938-0.6875-3.625 0-2.7188 1.0312-4.7188 1.0625-2 2.7812-3.4062t3.9375-2.2812q2.25-0.875 4.625-1.375 2.4062-0.5 4.7812-0.65625 2.375-0.1875 4.375-0.1875v-3.4688q0-3.3125-1.7188-4.8125t-4.8125-1.5q-1.75 0-3.2812 0.40625-1.5 0.40625-2.8125 1.0312t-2.4062 1.375-1.9688 1.4375z"/>
<path d="m113.81-30.062q-2.3125 0-4.4062 0.53125t-4.4688 1.8438v21.219q1.2812 1.2188 3.5625 2t5.3125 0.78125q4.625 0 6.9375-3.7812t2.3125-9.7188q0-6.2188-2.4688-9.5312-2.4688-3.3438-6.7812-3.3438zm-9.375-3.6875q0.21875 1.3438 0.375 2.4375 3.25-1.5938 5.5312-2.2812t4.5938-0.6875q6.4062 0 9.8438 4.6562 3.4688 4.6562 3.4688 12.594 0 7.5-3.8125 12.562-3.7812 5.0312-10.031 5.0312-3.5 0-5.8125-0.78125-2.2812-0.8125-3.6562-1.9062v16.281h-4.9375v-42.938q-0.0625-2.125-0.28125-4.9688z"/>
<path d="m136.5-48.969h4.9375v17.812q1.6875-1 4.4375-2.0625 2.7812-1.0625 6.2812-1.0625 5.3125 0 8.125 3.0625 2.8438 3.0625 2.8438 8.2812v22.938h-4.9375l0.0312-22.656q0-3.5938-1.7812-5.5938t-5.5625-2q-2.375 0-4.875 0.8125t-4.5625 1.9062v27.531h-4.9374z"/>
<path d="m177.56-4.5q2.5 1.2812 6.9062 1.2812 5.9688 0 8.6562-4.0625 2.7188-4.0938 2.7188-9.5625 0-6.4375-2.5-9.8125-2.5-3.4062-6.875-3.4062-2.625 0-5.0312 0.78125-2.375 0.78125-3.875 1.9062zm-4.9375-44.469h4.9375v18q1.5-1.2812 4.0625-2.2812 2.5938-1.0312 6.0625-1.0312 6.4688 0 9.9062 4.5 3.4688 4.5 3.4688 12.375 0 8.2812-4.0312 13.094t-13.562 4.8125q-2.2188 0-5.3438-0.25-3.125-0.21875-5.5-0.5z"/>
<path d="m209-48.969h4.9375v42.062q0 1.9062 0.75 2.5938t2.625 0.6875q0.25 0 0.71875-0.03125 0.5-0.03125 1-0.09375l0.71875 2.875q-0.5625 0.25-1.25 0.5t-1.4375 0.4375q-0.75 0.21875-1.5 0.3125-0.75 0.125-1.4062 0.125-2.4375 0-3.8125-1.5625-1.3438-1.5625-1.3438-4.6562z"/>
<path d="m244.62-17.688q-4.25 0.09375-7.3125 0.78125-3.0625 0.65625-5.0312 1.8125t-2.9062 2.7188-0.9375 3.4375q0 2.6562 1.5 3.9062t4.1562 1.25q1.4375 0 2.8438-0.3125 1.4375-0.3125 2.7812-0.84375t2.5625-1.25q1.25-0.75 2.3438-1.5938zm-19.656-11.875q1.1562-1.0625 2.6875-1.9375 1.5625-0.875 3.2812-1.5 1.75-0.625 3.5938-0.9375 1.875-0.34375 3.7188-0.34375 5.1875 0 8.25 2.5938t3.0625 7.2188v15.031q0 1.8438 0.125 3.0312t0.4375 1.875q0.34375 0.6875 0.875 0.96875 0.5625 0.25 1.4062 0.25 1.0625 0 2.1562-0.21875l0.78125 2.2812q-0.84375 0.8125-2.4062 1.3125-1.5312 0.5-3.3125 0.5-1.9688 0-3.1875-1.375-1.1875-1.4062-1.5312-4-2.6562 2.4688-5.8125 3.9375-3.125 1.4375-6.7188 1.4375-1.9688 0-3.6875-0.5625-1.6875-0.59375-2.9375-1.6875t-1.9688-2.6875q-0.6875-1.5938-0.6875-3.625 0-2.7188 1.0312-4.7188 1.0625-2 2.7812-3.4062t3.9375-2.2812q2.25-0.875 4.625-1.375 2.4062-0.5 4.7812-0.65625 2.375-0.1875 4.375-0.1875v-3.4688q0-3.3125-1.7188-4.8125t-4.8125-1.5q-1.75 0-3.2812 0.40625-1.5 0.40625-2.8125 1.0312t-2.4062 1.375-1.9688 1.4375z"/>
<path d="m262.22-8.1562q2.125 2.3125 4.375 3.5938t5.6562 1.2812q3.4375 0 5.6562-1.4375 2.2188-1.4688 2.2188-4 0-1.75-1.125-3-1.125-1.2812-4.5312-2.5-1.2812-0.4375-5.0312-1.7188-3.5312-0.9375-6.625-3.1875t-3.0938-6.375q0-3.9375 3.3438-6.3438 3.3438-2.4375 8.6562-2.4375 1.875 0 3.4688 0.21875 1.625 0.1875 3.0312 0.65625 1.4375 0.46875 2.6875 1.2188 1.2812 0.75 2.4688 1.875l-2.8438 3.4062q-2.125-1.8438-4.1562-2.6875-2-0.84375-4.5938-0.84375-3.1875 0-5.2812 1.1875-2.0625 1.1875-2.0625 3.4688 0 2.1875 1.9375 3.5 1.9375 1.2812 4.5938 2.0625 1.4062 0.4375 2.7812 0.90625t2.7812 0.90625q4.4375 1.5938 6.375 3.75t1.9375 5.6562q0 4.375-3.5938 6.9688t-8.875 2.5938q-4.125 0-7.3125-1.0312-3.1562-1.0625-6.125-4.125z"/>
</g>
</svg>
