<svg xmlns="http://www.w3.org/2000/svg" width="179.091" height="158.201" viewBox="-95 -95 179.091 158.201" xmlns:v="https://vecta.io/nano"><g stroke="#409dc1" stroke-width="12"><path d="M48.977-47.215l-69.282 15.307v73.91l69.282-15.307v-36.955L14.336-2.606" fill="none"/><path d="M-20.305-33.907l-40-26.513"/></g><g fill="#ff8552"><circle cx="-60.305" cy="-60.42" r="17"/><circle cx="-20.305" cy="-33.907" r="17"/><circle cx="48.977" cy="-49.215" r="17"/><circle cx="-20.305" cy="40.003" r="17"/><circle cx="48.977" cy="24.696" r="17"/><circle cx="48.977" cy="-12.259" r="11"/><circle cx="14.336" cy="-4.606" r="11"/></g><path d="M-86.223-86.118V54.424h21.316q3.135 0 4.493 1.149 1.358 1.254 1.358 3.239 0 1.985-1.358 3.135-1.358 1.254-4.493 1.254H-95V-95h30.094q3.135 0 4.493 1.254 1.358 1.254 1.358 3.239 0 1.881-1.358 3.135-1.358 1.254-4.493 1.254zM75.209 54.424V-86.118H53.997q-3.135 0-4.493-1.254-1.358-1.254-1.358-3.135 0-1.985 1.358-3.239Q50.862-95 53.997-95h30.094V63.201H53.997q-3.135 0-4.493-1.254-1.358-1.149-1.358-3.135 0-1.881 1.358-3.135 1.358-1.254 4.493-1.254z" fill="#409dc1"/></svg>
