<svg width="280" height="220" xmlns="http://www.w3.org/2000/svg" xmlns:xlink="http://www.w3.org/1999/xlink" xml:space="preserve" overflow="hidden"><defs><clipPath id="clip0"><rect x="32" y="404" width="280" height="220"/></clipPath><clipPath id="clip1"><rect x="32" y="404" width="280" height="219"/></clipPath><clipPath id="clip2"><rect x="32" y="404" width="280" height="219"/></clipPath><clipPath id="clip3"><rect x="32" y="404" width="280" height="219"/></clipPath></defs><g clip-path="url(#clip0)" transform="translate(-32 -404)"><g clip-path="url(#clip1)"><g clip-path="url(#clip2)"><g clip-path="url(#clip3)"><path d="M-4.63864 4.63864-4.63864-213.378 275.358-213.378 275.358 4.63864-4.63864 4.63864Z" fill="#FFFFFF" fill-rule="nonzero" fill-opacity="1" transform="matrix(1 0 0 1.00027 36.6386 617.898)"/><path d="M126.403-187.865C126.403-176.337 112.385-166.991 95.0921-166.991 77.7997-166.991 63.7813-176.337 63.7813-187.865 63.7813-199.393 77.7997-208.739 95.0921-208.739 112.385-208.739 126.403-199.393 126.403-187.865Z" stroke="#000000" stroke-width="1.15966" stroke-linecap="butt" stroke-linejoin="miter" stroke-miterlimit="4" stroke-opacity="1" fill="none" fill-rule="nonzero" transform="matrix(1 0 0 1.00027 36.6386 617.898)"/><text fill="#000000" fill-opacity="1" font-family="Times,Times_MSFontService,sans-serif" font-style="normal" font-variant="normal" font-weight="400" font-stretch="normal" font-size="14" text-anchor="start" direction="ltr" writing-mode="lr-tb" unicode-bidi="normal" text-decoration="none" transform="matrix(1.15966 0 0 1.15997 114.336 434)">Anna</text><path d="M62.6217-104.369C62.6217-92.8411 48.6033-83.4955 31.3108-83.4955 14.0183-83.4955 0-92.8411 0-104.369-8.23988e-15-115.898 14.0183-125.243 31.3108-125.243 48.6033-125.243 62.6217-115.898 62.6217-104.369Z" stroke="#000000" stroke-width="1.15966" stroke-linecap="butt" stroke-linejoin="miter" stroke-miterlimit="4" stroke-opacity="1" fill="none" fill-rule="nonzero" transform="matrix(1 0 0 1.00027 36.6386 617.898)"/><text fill="#000000" fill-opacity="1" font-family="Times,Times_MSFontService,sans-serif" font-style="normal" font-variant="normal" font-weight="400" font-stretch="normal" font-size="14" text-anchor="start" direction="ltr" writing-mode="lr-tb" unicode-bidi="normal" text-decoration="none" transform="matrix(1.15966 0 0 1.15997 50.5546 518)">Priya</text><path d="M80.6191-168.918C70.181-155.254 56.1516-136.889 45.7266-123.241" stroke="#000000" stroke-width="1.15966" stroke-linecap="butt" stroke-linejoin="miter" stroke-miterlimit="4" stroke-opacity="1" fill="none" fill-rule="nonzero" transform="matrix(1 0 0 1.00027 36.6386 617.898)"/><path d="M170.47-20.8739C170.47-9.34556 156.452 0 139.159 0 121.867 0 107.848-9.34556 107.848-20.8739 107.848-32.4022 121.867-41.7478 139.159-41.7478 156.452-41.7478 170.47-32.4022 170.47-20.8739Z" stroke="#000000" stroke-width="1.15966" stroke-linecap="butt" stroke-linejoin="miter" stroke-miterlimit="4" stroke-opacity="1" fill="none" fill-rule="nonzero" transform="matrix(1 0 0 1.00027 36.6386 617.898)"/><text fill="#000000" fill-opacity="1" font-family="Times,Times_MSFontService,sans-serif" font-style="normal" font-variant="normal" font-weight="400" font-stretch="normal" font-size="14" text-anchor="start" direction="ltr" writing-mode="lr-tb" unicode-bidi="normal" text-decoration="none" transform="matrix(1.15966 0 0 1.15997 156.663 601)">Blake</text><path d="M100.584-167.053C109.029-135.053 125.112-74.1053 133.598-41.948" stroke="#000000" stroke-width="1.15966" stroke-linecap="butt" stroke-linejoin="miter" stroke-miterlimit="4" stroke-opacity="1" fill="none" fill-rule="nonzero" transform="matrix(1 0 0 1.00027 36.6386 617.898)"/><path d="M75.3779-20.8739C75.3779-9.34556 61.3596 0 44.0671 0 26.7746 0 12.7563-9.34556 12.7563-20.8739 12.7563-32.4022 26.7746-41.7478 44.0671-41.7478 61.3596-41.7478 75.3779-32.4022 75.3779-20.8739Z" stroke="#000000" stroke-width="1.15966" stroke-linecap="butt" stroke-linejoin="miter" stroke-miterlimit="4" stroke-opacity="1" fill="none" fill-rule="nonzero" transform="matrix(1 0 0 1.00027 36.6386 617.898)"/><text fill="#000000" fill-opacity="1" font-family="Times,Times_MSFontService,sans-serif" font-style="normal" font-variant="normal" font-weight="400" font-stretch="normal" font-size="14" text-anchor="start" direction="ltr" writing-mode="lr-tb" unicode-bidi="normal" text-decoration="none" transform="matrix(1.15966 0 0 1.15997 67.3696 601)">Dan</text><path d="M92.0625-166.705C88.6733-145.354 82.4025-111.614 73.0586-83.4955 68.1473-68.7157 60.7479-52.7982 54.6539-40.7098" stroke="#000000" stroke-width="1.15966" stroke-linecap="butt" stroke-linejoin="miter" stroke-miterlimit="4" stroke-opacity="1" fill="none" fill-rule="nonzero" transform="matrix(1 0 0 1.00027 36.6386 617.898)"/><path d="M264.979-187.865C264.979-176.337 249.664-166.991 230.772-166.991 211.881-166.991 196.566-176.337 196.566-187.865 196.566-199.393 211.881-208.739 230.772-208.739 249.664-208.739 264.979-199.393 264.979-187.865Z" stroke="#000000" stroke-width="1.15966" stroke-linecap="butt" stroke-linejoin="miter" stroke-miterlimit="4" stroke-opacity="1" fill="none" fill-rule="nonzero" transform="matrix(1 0 0 1.00027 36.6386 617.898)"/><text fill="#000000" fill-opacity="1" font-family="Times,Times_MSFontService,sans-serif" font-style="normal" font-variant="normal" font-weight="400" font-stretch="normal" font-size="14" text-anchor="start" direction="ltr" writing-mode="lr-tb" unicode-bidi="normal" text-decoration="none" transform="matrix(1.15966 0 0 1.15997 245.378 434)">Xavier</text><path d="M270.658-20.8739C270.658-9.34556 252.8 0 230.772 0 208.744 0 190.887-9.34556 190.887-20.8739 190.887-32.4022 208.744-41.7478 230.772-41.7478 252.8-41.7478 270.658-32.4022 270.658-20.8739Z" stroke="#000000" stroke-width="1.15966" stroke-linecap="butt" stroke-linejoin="miter" stroke-miterlimit="4" stroke-opacity="1" fill="none" fill-rule="nonzero" transform="matrix(1 0 0 1.00027 36.6386 617.898)"/><text fill="#000000" fill-opacity="1" font-family="Times,Times_MSFontService,sans-serif" font-style="normal" font-variant="normal" font-weight="400" font-stretch="normal" font-size="14" text-anchor="start" direction="ltr" writing-mode="lr-tb" unicode-bidi="normal" text-decoration="none" transform="matrix(1.15966 0 0 1.15997 238.999 601)">Ysabelle</text><path d="M230.772-166.715C230.772-134.594 230.772-73.8709 230.772-41.8517" stroke="#000000" stroke-width="1.15966" stroke-linecap="butt" stroke-linejoin="miter" stroke-miterlimit="4" stroke-opacity="1" fill="none" fill-rule="nonzero" transform="matrix(1 0 0 1.00027 36.6386 617.898)"/><path d="M34.5298-83.3C36.4783-70.5461 38.9531-54.3475 40.8933-41.6473" stroke="#000000" stroke-width="1.15966" stroke-linecap="butt" stroke-linejoin="miter" stroke-miterlimit="4" stroke-opacity="1" fill="none" fill-rule="nonzero" transform="matrix(1 0 0 1.00027 36.6386 617.898)"/></g></g></g></g></svg>