<svg xmlns="http://www.w3.org/2000/svg" width="280" height="220" overflow="hidden"><style><![CDATA[.B{stroke:#000}.C{stroke-width:1.16}.D{fill:none}.E{fill:#000}.F{font-family:Times,Times_MSFontService,sans-serif}.G{font-size:14px}.H{direction:ltr}.I{writing-mode:lr-tb}.J{unicode-bidi:normal}]]></style><defs><clipPath id="A"><path d="M32 404h280v220H32z"/></clipPath><clipPath id="B"><path d="M32 404h280v219H32z"/></clipPath><clipPath id="C"><path d="M32 404h280v219H32z"/></clipPath><clipPath id="D"><path d="M32 404h280v219H32z"/></clipPath></defs><g clip-path="url(#A)" transform="translate(-32 -404)"><g clip-path="url(#B)"><g clip-path="url(#C)"><g clip-path="url(#D)"><path d="M32 622.538V404.462h279.997v218.076H32z" fill="#fff"/><path d="M163.042 429.982c0 11.531-14.018 20.88-31.311 20.88s-31.311-9.349-31.311-20.88 14.018-20.88 31.311-20.88 31.311 9.349 31.311 20.88z" class="B C D"/><text transform="matrix(1.15966 0 0 1.15997 114.336 434)" class="E F G H I J">Anna</text><path d="M99.26 513.501c0 11.531-14.018 20.879-31.311 20.879s-31.311-9.348-31.311-20.879 14.018-20.88 31.311-20.88 31.311 9.348 31.311 20.88z" class="B C D"/><text transform="matrix(1.15966 0 0 1.15997 50.5546 518)" class="E F G H I J">Priya</text><g class="B C D"><path d="M117.258 448.934l-34.893 45.689m124.744 102.395c0 11.531-14.018 20.88-31.311 20.88s-31.311-9.348-31.311-20.88 14.019-20.88 31.311-20.88 31.311 9.348 31.311 20.88z"/></g><text transform="matrix(1.15966 0 0 1.15997 156.663 601)" class="E F G H I J">Blake</text><g class="B C D"><path d="M137.223 450.8l33.014 125.139m-58.22 21.079c0 11.531-14.018 20.88-31.311 20.88s-31.311-9.348-31.311-20.88 14.018-20.88 31.311-20.88 31.311 9.348 31.311 20.88z"/></g><text transform="matrix(1.15966 0 0 1.15997 67.3696 601)" class="E F G H I J">Dan</text><g class="B C D"><path d="M128.701 451.148c-3.389 21.357-9.66 55.106-19.004 83.232-4.911 14.784-12.311 30.706-18.405 42.797m210.326-147.195c0 11.531-15.315 20.88-34.207 20.88s-34.206-9.349-34.206-20.88 15.315-20.88 34.206-20.88 34.207 9.349 34.207 20.88z"/></g><text transform="matrix(1.15966 0 0 1.15997 245.378 434)" class="E F G H I J">Xavier</text><path d="M307.297 597.018c0 11.531-17.858 20.88-39.886 20.88s-39.885-9.348-39.885-20.88 17.857-20.88 39.885-20.88 39.886 9.348 39.886 20.88z" class="B C D"/><text transform="matrix(1.15966 0 0 1.15997 238.999 601)" class="E F G H I J">Ysabelle</text><g class="B C D"><path d="M267.411 451.138v124.897M71.168 534.576l6.364 41.664"/></g></g></g></g></g></svg>
