<svg xmlns="http://www.w3.org/2000/svg" xmlns:xlink="http://www.w3.org/1999/xlink" width="578" height="130" overflow="hidden"><style><![CDATA[.B{stroke:#000}.C{fill:none}.D{stroke-width:1.499}.E{fill:#000}.F{font-family:Times,Times_MSFontService,sans-serif}.G{font-size:14px}.H{direction:ltr}.I{writing-mode:lr-tb}.J{unicode-bidi:normal}]]></style><defs><clipPath id="A"><path d="M688 18h578v130H688z"/></clipPath><clipPath id="B"><path d="M689 19h577v129H689z"/></clipPath><clipPath id="C"><path d="M689 19h577v129H689z"/></clipPath><clipPath id="D"><path d="M689 19h577v129H689z"/></clipPath><path id="E" d="M1098.678 52.07c0 14.878-18.141 26.939-40.518 26.939s-40.518-12.061-40.518-26.939 18.141-26.939 40.518-26.939 40.518 12.061 40.518 26.939z"/></defs><g clip-path="url(#A)" transform="translate(-688 -18)"><g clip-path="url(#B)"><g clip-path="url(#C)"><g clip-path="url(#D)"><path d="M689 147.855V19.145h577v128.709H689z" fill="#fff"/><path d="M776.038 74.52c0 14.878-18.14 26.939-40.517 26.939s-40.518-12.061-40.518-26.939 18.14-26.939 40.518-26.939 40.517 12.061 40.517 26.939z" class="B C D"/><text transform="matrix(1.50065 0 0 1.49662 730.268 81)" class="E F G H I J">0</text><use xlink:href="#E" class="B C D"/><text transform="matrix(1.50065 0 0 1.49662 1052.91 58)" class="E F G H I J">2</text><g class="B D"><path d="M775.378 68.833c9.049-1.212 18.698-2.395 27.672-3.293 68.58-6.884 147.979-10.386 199.406-12.063" class="C"/><path d="M1002.306 48.239l15.172 4.774-14.842 5.702-.33-10.476z"/></g><text transform="matrix(1.50065 0 0 1.49662 883.334 52)" class="E F G H I J">5.0</text><path d="M937.358 114.929c0 14.878-18.141 26.939-40.518 26.939s-40.518-12.061-40.518-26.939 18.141-26.939 40.518-26.939 40.518 12.061 40.518 26.939z" class="B C D"/><text transform="matrix(1.50065 0 0 1.49662 891.588 121)" class="E F G H I J">1</text><g class="B D"><path d="M773.742 83.889l69.931 17.855" class="C"/><path d="M845.578 96.82l13.237 8.785-15.832 1.362 2.596-10.147z"/></g><text transform="matrix(1.50065 0 0 1.49662 802.674 88)" class="E F G H I J">2.0</text><path d="M1259.998 102.956c0 14.878-18.14 26.939-40.518 26.939s-40.518-12.061-40.518-26.939 18.141-26.939 40.518-26.939 40.518 12.061 40.518 26.939z" class="B C D"/><text transform="matrix(1.50065 0 0 1.49662 1214.23 109)" class="E F G H I J">3</text><g class="B D"><path d="M1095.197 63.49l72.542 23.317" class="C"/><path d="M1169.899 82.003l12.665 9.578-15.892.389 3.227-9.968z"/></g><text transform="matrix(1.50065 0 0 1.49662 1125.31 70)" class="E F G H I J">0.5</text><g class="B D"><path d="M932.301 101.444l75.874-30.127" class="C"/><path d="M1006.869 66.199l15.892-.659-12.005 10.402-3.886-9.743z"/></g><text transform="matrix(1.50065 0 0 1.49662 963.994 76)" class="E F G H I J">1.5</text><g class="B D"><path d="M937.524 115.557c40.397.434 105.225.539 161.154-2.125 21.52-1.018 45.154-2.933 65.668-4.849" class="C"/><path d="M1163.911 103.36l15.442 3.771-14.437 6.66-1.006-10.431z"/></g><text transform="matrix(1.50065 0 0 1.49662 1039.4 109)" class="E F G H I J">4.25</text></g></g></g></g></svg>
