<svg width="578" height="130" xmlns="http://www.w3.org/2000/svg" xmlns:xlink="http://www.w3.org/1999/xlink" xml:space="preserve" overflow="hidden"><defs><clipPath id="clip0"><rect x="688" y="18" width="578" height="130"/></clipPath><clipPath id="clip1"><rect x="689" y="19" width="577" height="129"/></clipPath><clipPath id="clip2"><rect x="689" y="19" width="577" height="129"/></clipPath><clipPath id="clip3"><rect x="689" y="19" width="577" height="129"/></clipPath></defs><g clip-path="url(#clip0)" transform="translate(-688 -18)"><g clip-path="url(#clip1)"><g clip-path="url(#clip2)"><g clip-path="url(#clip3)"><path d="M-5.9865 5.9865-5.9865-122.723 569.466-122.723 569.466 5.9865-5.9865 5.9865Z" fill="#FFFFFF" fill-rule="nonzero" fill-opacity="1" transform="matrix(1.00269 0 0 1 695.003 141.868)"/><path d="M80.8177-67.3481C80.8177-52.47 62.7261-40.4089 40.4089-40.4089 18.0917-40.4089 0-52.47 0-67.3481-1.06342e-14-82.2262 18.0917-94.2873 40.4089-94.2873 62.7261-94.2873 80.8177-82.2262 80.8177-67.3481Z" stroke="#000000" stroke-width="1.49662" stroke-linecap="butt" stroke-linejoin="miter" stroke-miterlimit="4" stroke-opacity="1" fill="none" fill-rule="nonzero" transform="matrix(1.00269 0 0 1 695.003 141.868)"/><text fill="#000000" fill-opacity="1" font-family="Times,Times_MSFontService,sans-serif" font-style="normal" font-variant="normal" font-weight="400" font-stretch="normal" font-size="14" text-anchor="start" direction="ltr" writing-mode="lr-tb" unicode-bidi="normal" text-decoration="none" transform="matrix(1.50065 0 0 1.49662 730.268 81)">0</text><path d="M402.592-89.7975C402.592-74.9193 384.5-62.8582 362.183-62.8582 339.866-62.8582 321.774-74.9193 321.774-89.7975 321.774-104.676 339.866-116.737 362.183-116.737 384.5-116.737 402.592-104.676 402.592-89.7975Z" stroke="#000000" stroke-width="1.49662" stroke-linecap="butt" stroke-linejoin="miter" stroke-miterlimit="4" stroke-opacity="1" fill="none" fill-rule="nonzero" transform="matrix(1.00269 0 0 1 695.003 141.868)"/><text fill="#000000" fill-opacity="1" font-family="Times,Times_MSFontService,sans-serif" font-style="normal" font-variant="normal" font-weight="400" font-stretch="normal" font-size="14" text-anchor="start" direction="ltr" writing-mode="lr-tb" unicode-bidi="normal" text-decoration="none" transform="matrix(1.50065 0 0 1.49662 1052.91 58)">2</text><path d="M80.1592-73.0353C89.1839-74.2475 98.8072-75.4299 107.757-76.3279 176.153-83.2123 255.339-86.7144 306.628-88.3906" stroke="#000000" stroke-width="1.49662" stroke-linecap="butt" stroke-linejoin="miter" stroke-miterlimit="4" stroke-opacity="1" fill="none" fill-rule="nonzero" transform="matrix(1.00269 0 0 1 695.003 141.868)"/><path d="M306.479-93.6288 321.61-88.8546 306.808-83.1525 306.479-93.6288Z" stroke="#000000" stroke-width="1.49662" stroke-linecap="butt" stroke-linejoin="miter" stroke-miterlimit="4" stroke-opacity="1" fill="#000000" fill-rule="nonzero" fill-opacity="1" transform="matrix(1.00269 0 0 1 695.003 141.868)"/><text fill="#000000" fill-opacity="1" font-family="Times,Times_MSFontService,sans-serif" font-style="normal" font-variant="normal" font-weight="400" font-stretch="normal" font-size="14" text-anchor="start" direction="ltr" writing-mode="lr-tb" unicode-bidi="normal" text-decoration="none" transform="matrix(1.50065 0 0 1.49662 883.334 52)">5.0</text><path d="M241.705-26.9392C241.705-12.0611 223.613 0 201.296 0 178.979 0 160.887-12.0611 160.887-26.9392 160.887-41.8174 178.979-53.8785 201.296-53.8785 223.613-53.8785 241.705-41.8174 241.705-26.9392Z" stroke="#000000" stroke-width="1.49662" stroke-linecap="butt" stroke-linejoin="miter" stroke-miterlimit="4" stroke-opacity="1" fill="none" fill-rule="nonzero" transform="matrix(1.00269 0 0 1 695.003 141.868)"/><text fill="#000000" fill-opacity="1" font-family="Times,Times_MSFontService,sans-serif" font-style="normal" font-variant="normal" font-weight="400" font-stretch="normal" font-size="14" text-anchor="start" direction="ltr" writing-mode="lr-tb" unicode-bidi="normal" text-decoration="none" transform="matrix(1.50065 0 0 1.49662 891.588 121)">1</text><path d="M78.5279-57.9792C99.2561-52.6662 125.507-45.9464 148.271-40.1245" stroke="#000000" stroke-width="1.49662" stroke-linecap="butt" stroke-linejoin="miter" stroke-miterlimit="4" stroke-opacity="1" fill="none" fill-rule="nonzero" transform="matrix(1.00269 0 0 1 695.003 141.868)"/><path d="M150.171-45.0484 163.372-36.2632 147.582-34.9013 150.171-45.0484Z" stroke="#000000" stroke-width="1.49662" stroke-linecap="butt" stroke-linejoin="miter" stroke-miterlimit="4" stroke-opacity="1" fill="#000000" fill-rule="nonzero" fill-opacity="1" transform="matrix(1.00269 0 0 1 695.003 141.868)"/><text fill="#000000" fill-opacity="1" font-family="Times,Times_MSFontService,sans-serif" font-style="normal" font-variant="normal" font-weight="400" font-stretch="normal" font-size="14" text-anchor="start" direction="ltr" writing-mode="lr-tb" unicode-bidi="normal" text-decoration="none" transform="matrix(1.50065 0 0 1.49662 802.674 88)">2.0</text><path d="M563.479-38.9122C563.479-24.0341 545.388-11.973 523.07-11.973 500.753-11.973 482.661-24.0341 482.661-38.9122 482.661-53.7904 500.753-65.8515 523.07-65.8515 545.388-65.8515 563.479-53.7904 563.479-38.9122Z" stroke="#000000" stroke-width="1.49662" stroke-linecap="butt" stroke-linejoin="miter" stroke-miterlimit="4" stroke-opacity="1" fill="none" fill-rule="nonzero" transform="matrix(1.00269 0 0 1 695.003 141.868)"/><text fill="#000000" fill-opacity="1" font-family="Times,Times_MSFontService,sans-serif" font-style="normal" font-variant="normal" font-weight="400" font-stretch="normal" font-size="14" text-anchor="start" direction="ltr" writing-mode="lr-tb" unicode-bidi="normal" text-decoration="none" transform="matrix(1.50065 0 0 1.49662 1214.23 109)">3</text><path d="M399.12-78.3782C420.447-71.5087 447.94-62.6487 471.467-55.0608" stroke="#000000" stroke-width="1.49662" stroke-linecap="butt" stroke-linejoin="miter" stroke-miterlimit="4" stroke-opacity="1" fill="none" fill-rule="nonzero" transform="matrix(1.00269 0 0 1 695.003 141.868)"/><path d="M473.622-59.865 486.253-50.2866 470.404-49.8975 473.622-59.865Z" stroke="#000000" stroke-width="1.49662" stroke-linecap="butt" stroke-linejoin="miter" stroke-miterlimit="4" stroke-opacity="1" fill="#000000" fill-rule="nonzero" fill-opacity="1" transform="matrix(1.00269 0 0 1 695.003 141.868)"/><text fill="#000000" fill-opacity="1" font-family="Times,Times_MSFontService,sans-serif" font-style="normal" font-variant="normal" font-weight="400" font-stretch="normal" font-size="14" text-anchor="start" direction="ltr" writing-mode="lr-tb" unicode-bidi="normal" text-decoration="none" transform="matrix(1.50065 0 0 1.49662 1125.31 70)">0.5</text><path d="M236.661-40.4238C258.721-49.209 287.846-60.8079 312.331-70.5509" stroke="#000000" stroke-width="1.49662" stroke-linecap="butt" stroke-linejoin="miter" stroke-miterlimit="4" stroke-opacity="1" fill="none" fill-rule="nonzero" transform="matrix(1.00269 0 0 1 695.003 141.868)"/><path d="M311.029-75.6693 326.878-76.3279 314.905-65.9263 311.029-75.6693Z" stroke="#000000" stroke-width="1.49662" stroke-linecap="butt" stroke-linejoin="miter" stroke-miterlimit="4" stroke-opacity="1" fill="#000000" fill-rule="nonzero" fill-opacity="1" transform="matrix(1.00269 0 0 1 695.003 141.868)"/><text fill="#000000" fill-opacity="1" font-family="Times,Times_MSFontService,sans-serif" font-style="normal" font-variant="normal" font-weight="400" font-stretch="normal" font-size="14" text-anchor="start" direction="ltr" writing-mode="lr-tb" unicode-bidi="normal" text-decoration="none" transform="matrix(1.50065 0 0 1.49662 963.994 76)">1.5</text><path d="M241.87-26.3107C282.159-25.8766 346.813-25.7719 402.592-28.4359 424.054-29.4536 447.625-31.3692 468.084-33.2849" stroke="#000000" stroke-width="1.49662" stroke-linecap="butt" stroke-linejoin="miter" stroke-miterlimit="4" stroke-opacity="1" fill="none" fill-rule="nonzero" transform="matrix(1.00269 0 0 1 695.003 141.868)"/><path d="M467.65-38.5081 483.051-34.7367 468.653-28.0767 467.65-38.5081Z" stroke="#000000" stroke-width="1.49662" stroke-linecap="butt" stroke-linejoin="miter" stroke-miterlimit="4" stroke-opacity="1" fill="#000000" fill-rule="nonzero" fill-opacity="1" transform="matrix(1.00269 0 0 1 695.003 141.868)"/><text fill="#000000" fill-opacity="1" font-family="Times,Times_MSFontService,sans-serif" font-style="normal" font-variant="normal" font-weight="400" font-stretch="normal" font-size="14" text-anchor="start" direction="ltr" writing-mode="lr-tb" unicode-bidi="normal" text-decoration="none" transform="matrix(1.50065 0 0 1.49662 1039.4 109)">4.25</text></g></g></g></g></svg>