<svg width="367" height="441" xmlns="http://www.w3.org/2000/svg" xmlns:xlink="http://www.w3.org/1999/xlink" xml:space="preserve" overflow="hidden"><defs><clipPath id="clip0"><rect x="913" y="121" width="367" height="441"/></clipPath><clipPath id="clip1"><rect x="914" y="122" width="366" height="440"/></clipPath><clipPath id="clip2"><rect x="914" y="122" width="366" height="440"/></clipPath><clipPath id="clip3"><rect x="914" y="122" width="366" height="440"/></clipPath></defs><g clip-path="url(#clip0)" transform="translate(-913 -121)"><g clip-path="url(#clip1)"><g clip-path="url(#clip2)"><g clip-path="url(#clip3)"><path d="M-3.69748 3.69748-3.69748-436.303 362.069-436.303 362.069 3.69748-3.69748 3.69748Z" fill="#FFFFFF" fill-rule="nonzero" fill-opacity="1" transform="matrix(1.00039 0 0 1 917.746 558.303)"/><path d="M249.993-415.966C249.993-406.777 238.819-399.328 225.035-399.328 211.251-399.328 200.077-406.777 200.077-415.966 200.077-425.156 211.251-432.605 225.035-432.605 238.819-432.605 249.993-425.156 249.993-415.966Z" stroke="#FFA500" stroke-width="0.92437" stroke-linecap="butt" stroke-linejoin="miter" stroke-miterlimit="4" stroke-opacity="1" fill="#FFA500" fill-rule="nonzero" fill-opacity="1" transform="matrix(1.00039 0 0 1 917.746 558.303)"/><text fill="#000000" fill-opacity="1" font-family="Times,Times_MSFontService,sans-serif" font-style="normal" font-variant="normal" font-weight="400" font-stretch="normal" font-size="14" text-anchor="start" direction="ltr" writing-mode="lr-tb" unicode-bidi="normal" text-decoration="none" transform="matrix(0.924728 0 0 0.92437 1130.85 146)">Start</text><path d="M170.029-349.412C170.029-340.222 152.443-332.773 130.749-332.773 109.056-332.773 91.4693-340.222 91.4693-349.412 91.4693-358.601 109.056-366.05 130.749-366.05 152.443-366.05 170.029-358.601 170.029-349.412Z" stroke="#FFA500" stroke-width="0.92437" stroke-linecap="butt" stroke-linejoin="miter" stroke-miterlimit="4" stroke-opacity="1" fill="#FFA500" fill-rule="nonzero" fill-opacity="1" transform="matrix(1.00039 0 0 1 917.746 558.303)"/><text fill="#000000" fill-opacity="1" font-family="Times,Times_MSFontService,sans-serif" font-style="normal" font-variant="normal" font-weight="400" font-stretch="normal" font-size="14" text-anchor="start" direction="ltr" writing-mode="lr-tb" unicode-bidi="normal" text-decoration="none" transform="matrix(0.924728 0 0 0.92437 1018.49 212)">Load File 1</text><path d="M207.742-403.759C194.16-394.173 174.964-380.622 159.137-369.45" stroke="#000000" stroke-width="0.92437" stroke-linecap="butt" stroke-linejoin="miter" stroke-miterlimit="4" stroke-opacity="1" fill="none" fill-rule="nonzero" transform="matrix(1.00039 0 0 1 917.746 558.303)"/><path d="M160.632-366.546 151.215-363.859 156.902-371.832 160.632-366.546Z" stroke="#000000" stroke-width="0.92437" stroke-linecap="butt" stroke-linejoin="miter" stroke-miterlimit="4" stroke-opacity="1" fill="#000000" fill-rule="nonzero" fill-opacity="1" transform="matrix(1.00039 0 0 1 917.746 558.303)"/><path d="M264.315-349.412C264.315-340.222 246.729-332.773 225.035-332.773 203.341-332.773 185.755-340.222 185.755-349.412 185.755-358.601 203.341-366.05 225.035-366.05 246.729-366.05 264.315-358.601 264.315-349.412Z" stroke="#FFA500" stroke-width="0.92437" stroke-linecap="butt" stroke-linejoin="miter" stroke-miterlimit="4" stroke-opacity="1" fill="#FFA500" fill-rule="nonzero" fill-opacity="1" transform="matrix(1.00039 0 0 1 917.746 558.303)"/><text fill="#000000" fill-opacity="1" font-family="Times,Times_MSFontService,sans-serif" font-style="normal" font-variant="normal" font-weight="400" font-stretch="normal" font-size="14" text-anchor="start" direction="ltr" writing-mode="lr-tb" unicode-bidi="normal" text-decoration="none" transform="matrix(0.924728 0 0 0.92437 1112.81 212)">Load File 2</text><path d="M225.035-399.172C225.035-392.054 225.035-383.589 225.035-375.68" stroke="#000000" stroke-width="0.92437" stroke-linecap="butt" stroke-linejoin="miter" stroke-miterlimit="4" stroke-opacity="1" fill="none" fill-rule="nonzero" transform="matrix(1.00039 0 0 1 917.746 558.303)"/><path d="M228.27-375.676 225.035-366.432 221.8-375.676 228.27-375.676Z" stroke="#000000" stroke-width="0.92437" stroke-linecap="butt" stroke-linejoin="miter" stroke-miterlimit="4" stroke-opacity="1" fill="#000000" fill-rule="nonzero" fill-opacity="1" transform="matrix(1.00039 0 0 1 917.746 558.303)"/><path d="M358.601-349.412C358.601-340.222 341.015-332.773 319.321-332.773 297.627-332.773 280.041-340.222 280.041-349.412 280.041-358.601 297.627-366.05 319.321-366.05 341.015-366.05 358.601-358.601 358.601-349.412Z" stroke="#FFA500" stroke-width="0.92437" stroke-linecap="butt" stroke-linejoin="miter" stroke-miterlimit="4" stroke-opacity="1" fill="#FFA500" fill-rule="nonzero" fill-opacity="1" transform="matrix(1.00039 0 0 1 917.746 558.303)"/><text fill="#000000" fill-opacity="1" font-family="Times,Times_MSFontService,sans-serif" font-style="normal" font-variant="normal" font-weight="400" font-stretch="normal" font-size="14" text-anchor="start" direction="ltr" writing-mode="lr-tb" unicode-bidi="normal" text-decoration="none" transform="matrix(0.924728 0 0 0.92437 1207.14 212)">Load File 3</text><path d="M242.328-403.759C255.91-394.173 275.106-380.622 290.933-369.45" stroke="#000000" stroke-width="0.92437" stroke-linecap="butt" stroke-linejoin="miter" stroke-miterlimit="4" stroke-opacity="1" fill="none" fill-rule="nonzero" transform="matrix(1.00039 0 0 1 917.746 558.303)"/><path d="M293.168-371.832 298.855-363.859 289.437-366.546 293.168-371.832Z" stroke="#000000" stroke-width="0.92437" stroke-linecap="butt" stroke-linejoin="miter" stroke-miterlimit="4" stroke-opacity="1" fill="#000000" fill-rule="nonzero" fill-opacity="1" transform="matrix(1.00039 0 0 1 917.746 558.303)"/><path d="M251.56-282.857C251.56-273.668 239.684-266.218 225.035-266.218 210.386-266.218 198.51-273.668 198.51-282.857 198.51-292.046 210.386-299.496 225.035-299.496 239.684-299.496 251.56-292.046 251.56-282.857Z" stroke="#FFA500" stroke-width="0.92437" stroke-linecap="butt" stroke-linejoin="miter" stroke-miterlimit="4" stroke-opacity="1" fill="#FFA500" fill-rule="nonzero" fill-opacity="1" transform="matrix(1.00039 0 0 1 917.746 558.303)"/><text fill="#000000" fill-opacity="1" font-family="Times,Times_MSFontService,sans-serif" font-style="normal" font-variant="normal" font-weight="400" font-stretch="normal" font-size="14" text-anchor="start" direction="ltr" writing-mode="lr-tb" unicode-bidi="normal" text-decoration="none" transform="matrix(0.924728 0 0 0.92437 1125.76 279)">Merge</text><path d="M150.976-335.134C165.26-325.051 184.502-311.468 199.792-300.675" stroke="#000000" stroke-width="0.92437" stroke-linecap="butt" stroke-linejoin="miter" stroke-miterlimit="4" stroke-opacity="1" fill="none" fill-rule="nonzero" transform="matrix(1.00039 0 0 1 917.746 558.303)"/><path d="M201.695-303.293 207.381-295.319 197.963-298.007 201.695-303.293Z" stroke="#000000" stroke-width="0.92437" stroke-linecap="butt" stroke-linejoin="miter" stroke-miterlimit="4" stroke-opacity="1" fill="#000000" fill-rule="nonzero" fill-opacity="1" transform="matrix(1.00039 0 0 1 917.746 558.303)"/><path d="M225.035-332.617C225.035-325.499 225.035-317.035 225.035-309.125" stroke="#000000" stroke-width="0.92437" stroke-linecap="butt" stroke-linejoin="miter" stroke-miterlimit="4" stroke-opacity="1" fill="none" fill-rule="nonzero" transform="matrix(1.00039 0 0 1 917.746 558.303)"/><path d="M228.27-309.121 225.035-299.878 221.8-309.121 228.27-309.121Z" stroke="#000000" stroke-width="0.92437" stroke-linecap="butt" stroke-linejoin="miter" stroke-miterlimit="4" stroke-opacity="1" fill="#000000" fill-rule="nonzero" fill-opacity="1" transform="matrix(1.00039 0 0 1 917.746 558.303)"/><path d="M299.094-335.134C284.809-325.051 265.568-311.468 250.278-300.675" stroke="#000000" stroke-width="0.92437" stroke-linecap="butt" stroke-linejoin="miter" stroke-miterlimit="4" stroke-opacity="1" fill="none" fill-rule="nonzero" transform="matrix(1.00039 0 0 1 917.746 558.303)"/><path d="M252.106-298.007 242.689-295.319 248.375-303.293 252.106-298.007Z" stroke="#000000" stroke-width="0.92437" stroke-linecap="butt" stroke-linejoin="miter" stroke-miterlimit="4" stroke-opacity="1" fill="#000000" fill-rule="nonzero" fill-opacity="1" transform="matrix(1.00039 0 0 1 917.746 558.303)"/><path d="M249.993-216.303C249.993-207.113 238.819-199.664 225.035-199.664 211.251-199.664 200.077-207.113 200.077-216.303 200.077-225.492 211.251-232.941 225.035-232.941 238.819-232.941 249.993-225.492 249.993-216.303Z" stroke="#FFA500" stroke-width="0.92437" stroke-linecap="butt" stroke-linejoin="miter" stroke-miterlimit="4" stroke-opacity="1" fill="#FFA500" fill-rule="nonzero" fill-opacity="1" transform="matrix(1.00039 0 0 1 917.746 558.303)"/><text fill="#000000" fill-opacity="1" font-family="Times,Times_MSFontService,sans-serif" font-style="normal" font-variant="normal" font-weight="400" font-stretch="normal" font-size="14" text-anchor="start" direction="ltr" writing-mode="lr-tb" unicode-bidi="normal" text-decoration="none" transform="matrix(0.924728 0 0 0.92437 1127.61 345)">Clean</text><path d="M225.035-266.062C225.035-258.945 225.035-250.48 225.035-242.57" stroke="#000000" stroke-width="0.92437" stroke-linecap="butt" stroke-linejoin="miter" stroke-miterlimit="4" stroke-opacity="1" fill="none" fill-rule="nonzero" transform="matrix(1.00039 0 0 1 917.746 558.303)"/><path d="M228.27-242.567 225.035-233.323 221.8-242.567 228.27-242.567Z" stroke="#000000" stroke-width="0.92437" stroke-linecap="butt" stroke-linejoin="miter" stroke-miterlimit="4" stroke-opacity="1" fill="#000000" fill-rule="nonzero" fill-opacity="1" transform="matrix(1.00039 0 0 1 917.746 558.303)"/><path d="M261.819-149.748C261.819-140.559 245.35-133.109 225.035-133.109 204.72-133.109 188.251-140.559 188.251-149.748 188.251-158.937 204.72-166.387 225.035-166.387 245.35-166.387 261.819-158.937 261.819-149.748Z" stroke="#FFA500" stroke-width="0.92437" stroke-linecap="butt" stroke-linejoin="miter" stroke-miterlimit="4" stroke-opacity="1" fill="#FFA500" fill-rule="nonzero" fill-opacity="1" transform="matrix(1.00039 0 0 1 917.746 558.303)"/><text fill="#000000" fill-opacity="1" font-family="Times,Times_MSFontService,sans-serif" font-style="normal" font-variant="normal" font-weight="400" font-stretch="normal" font-size="14" text-anchor="start" direction="ltr" writing-mode="lr-tb" unicode-bidi="normal" text-decoration="none" transform="matrix(0.924728 0 0 0.92437 1115.59 412)">Normalize</text><path d="M225.035-199.508C225.035-192.39 225.035-183.926 225.035-176.016" stroke="#000000" stroke-width="0.92437" stroke-linecap="butt" stroke-linejoin="miter" stroke-miterlimit="4" stroke-opacity="1" fill="none" fill-rule="nonzero" transform="matrix(1.00039 0 0 1 917.746 558.303)"/><path d="M228.27-176.012 225.035-166.768 221.8-176.012 228.27-176.012Z" stroke="#000000" stroke-width="0.92437" stroke-linecap="butt" stroke-linejoin="miter" stroke-miterlimit="4" stroke-opacity="1" fill="#000000" fill-rule="nonzero" fill-opacity="1" transform="matrix(1.00039 0 0 1 917.746 558.303)"/><path d="M158.84-83.1933C158.84-74.004 133.848-66.5546 103.018-66.5546 72.1886-66.5546 47.1962-74.004 47.1962-83.1933 47.1962-92.3826 72.1886-99.8319 103.018-99.8319 133.848-99.8319 158.84-92.3826 158.84-83.1933Z" stroke="#FFA500" stroke-width="0.92437" stroke-linecap="butt" stroke-linejoin="miter" stroke-miterlimit="4" stroke-opacity="1" fill="#FFA500" fill-rule="nonzero" fill-opacity="1" transform="matrix(1.00039 0 0 1 917.746 558.303)"/><text fill="#000000" fill-opacity="1" font-family="Times,Times_MSFontService,sans-serif" font-style="normal" font-variant="normal" font-weight="400" font-stretch="normal" font-size="14" text-anchor="start" direction="ltr" writing-mode="lr-tb" unicode-bidi="normal" text-decoration="none" transform="matrix(0.924728 0 0 0.92437 974.106 479)">Weekly Summary</text><path d="M201.509-136.916C183.493-127.089 158.357-113.378 137.987-102.268" stroke="#000000" stroke-width="0.92437" stroke-linecap="butt" stroke-linejoin="miter" stroke-miterlimit="4" stroke-opacity="1" fill="none" fill-rule="nonzero" transform="matrix(1.00039 0 0 1 917.746 558.303)"/><path d="M139.535-99.4261 129.871-97.8399 136.437-105.106 139.535-99.4261Z" stroke="#000000" stroke-width="0.92437" stroke-linecap="butt" stroke-linejoin="miter" stroke-miterlimit="4" stroke-opacity="1" fill="#000000" fill-rule="nonzero" fill-opacity="1" transform="matrix(1.00039 0 0 1 917.746 558.303)"/><path d="M274.85-83.1933C274.85-74.004 252.547-66.5546 225.035-66.5546 197.523-66.5546 175.22-74.004 175.22-83.1933 175.22-92.3826 197.523-99.8319 225.035-99.8319 252.547-99.8319 274.85-92.3826 274.85-83.1933Z" stroke="#FFA500" stroke-width="0.92437" stroke-linecap="butt" stroke-linejoin="miter" stroke-miterlimit="4" stroke-opacity="1" fill="#FFA500" fill-rule="nonzero" fill-opacity="1" transform="matrix(1.00039 0 0 1 917.746 558.303)"/><text fill="#000000" fill-opacity="1" font-family="Times,Times_MSFontService,sans-serif" font-style="normal" font-variant="normal" font-weight="400" font-stretch="normal" font-size="14" text-anchor="start" direction="ltr" writing-mode="lr-tb" unicode-bidi="normal" text-decoration="none" transform="matrix(0.924728 0 0 0.92437 1101.72 479)">Daily Summary</text><path d="M225.035-132.953C225.035-125.835 225.035-117.371 225.035-109.461" stroke="#000000" stroke-width="0.92437" stroke-linecap="butt" stroke-linejoin="miter" stroke-miterlimit="4" stroke-opacity="1" fill="none" fill-rule="nonzero" transform="matrix(1.00039 0 0 1 917.746 558.303)"/><path d="M228.27-109.457 225.035-100.214 221.8-109.457 228.27-109.457Z" stroke="#000000" stroke-width="0.92437" stroke-linecap="butt" stroke-linejoin="miter" stroke-miterlimit="4" stroke-opacity="1" fill="#000000" fill-rule="nonzero" fill-opacity="1" transform="matrix(1.00039 0 0 1 917.746 558.303)"/><path d="M354.811-83.1933C354.811-74.004 340.577-66.5546 323.018-66.5546 305.46-66.5546 291.225-74.004 291.225-83.1933 291.225-92.3826 305.46-99.8319 323.018-99.8319 340.577-99.8319 354.811-92.3826 354.811-83.1933Z" stroke="#FFA500" stroke-width="0.92437" stroke-linecap="butt" stroke-linejoin="miter" stroke-miterlimit="4" stroke-opacity="1" fill="#FFA500" fill-rule="nonzero" fill-opacity="1" transform="matrix(1.00039 0 0 1 917.746 558.303)"/><text fill="#000000" fill-opacity="1" font-family="Times,Times_MSFontService,sans-serif" font-style="normal" font-variant="normal" font-weight="400" font-stretch="normal" font-size="14" text-anchor="start" direction="ltr" writing-mode="lr-tb" unicode-bidi="normal" text-decoration="none" transform="matrix(0.924728 0 0 0.92437 1218.23 479)">Serialize</text><path d="M245.575-135.795C260.103-125.929 279.737-112.591 295.601-101.817" stroke="#000000" stroke-width="0.92437" stroke-linecap="butt" stroke-linejoin="miter" stroke-miterlimit="4" stroke-opacity="1" fill="none" fill-rule="nonzero" transform="matrix(1.00039 0 0 1 917.746 558.303)"/><path d="M297.678-104.317 303.506-96.4469 294.042-98.9649 297.678-104.317Z" stroke="#000000" stroke-width="0.92437" stroke-linecap="butt" stroke-linejoin="miter" stroke-miterlimit="4" stroke-opacity="1" fill="#000000" fill-rule="nonzero" fill-opacity="1" transform="matrix(1.00039 0 0 1 917.746 558.303)"/><path d="M63.6344-16.6387C63.6344-7.44938 49.4003 0 31.8417 0 14.283 0 0.0488951-7.44938 0.0488951-16.6387 0.0488951-25.8279 14.283-33.2773 31.8417-33.2773 49.4003-33.2773 63.6344-25.8279 63.6344-16.6387Z" stroke="#FFA500" stroke-width="0.92437" stroke-linecap="butt" stroke-linejoin="miter" stroke-miterlimit="4" stroke-opacity="1" fill="#FFA500" fill-rule="nonzero" fill-opacity="1" transform="matrix(1.00039 0 0 1 917.746 558.303)"/><text fill="#000000" fill-opacity="1" font-family="Times,Times_MSFontService,sans-serif" font-style="normal" font-variant="normal" font-weight="400" font-stretch="normal" font-size="14" text-anchor="start" direction="ltr" writing-mode="lr-tb" unicode-bidi="normal" text-decoration="none" transform="matrix(0.924728 0 0 0.92437 926.944 545)">Report 1</text><path d="M85.7884-67.0823C76.386-58.2905 64.6294-47.2973 54.4935-37.8196" stroke="#000000" stroke-width="0.92437" stroke-linecap="butt" stroke-linejoin="miter" stroke-miterlimit="4" stroke-opacity="1" fill="none" fill-rule="nonzero" transform="matrix(1.00039 0 0 1 917.746 558.303)"/><path d="M56.4177-35.1895 47.4562-31.2392 51.9983-39.9158 56.4177-35.1895Z" stroke="#000000" stroke-width="0.92437" stroke-linecap="butt" stroke-linejoin="miter" stroke-miterlimit="4" stroke-opacity="1" fill="#000000" fill-rule="nonzero" fill-opacity="1" transform="matrix(1.00039 0 0 1 917.746 558.303)"/><path d="M144.055-16.6387C144.055-7.44938 129.821 0 112.262 0 94.7033 0 80.4692-7.44938 80.4692-16.6387 80.4692-25.8279 94.7033-33.2773 112.262-33.2773 129.821-33.2773 144.055-25.8279 144.055-16.6387Z" stroke="#FFA500" stroke-width="0.92437" stroke-linecap="butt" stroke-linejoin="miter" stroke-miterlimit="4" stroke-opacity="1" fill="#FFA500" fill-rule="nonzero" fill-opacity="1" transform="matrix(1.00039 0 0 1 917.746 558.303)"/><text fill="#000000" fill-opacity="1" font-family="Times,Times_MSFontService,sans-serif" font-style="normal" font-variant="normal" font-weight="400" font-stretch="normal" font-size="14" text-anchor="start" direction="ltr" writing-mode="lr-tb" unicode-bidi="normal" text-decoration="none" transform="matrix(0.924728 0 0 0.92437 1007.4 545)">Report 2</text><path d="M105.35-66.3988C106.34-59.2808 107.515-50.8166 108.613-42.9061" stroke="#000000" stroke-width="0.92437" stroke-linecap="butt" stroke-linejoin="miter" stroke-miterlimit="4" stroke-opacity="1" fill="none" fill-rule="nonzero" transform="matrix(1.00039 0 0 1 917.746 558.303)"/><path d="M111.83-43.2602 109.898-33.6594 105.422-42.3701 111.83-43.2602Z" stroke="#000000" stroke-width="0.92437" stroke-linecap="butt" stroke-linejoin="miter" stroke-miterlimit="4" stroke-opacity="1" fill="#000000" fill-rule="nonzero" fill-opacity="1" transform="matrix(1.00039 0 0 1 917.746 558.303)"/><path d="M252.853-16.6387C252.853-7.44938 236.26 0 215.791 0 195.323 0 178.73-7.44938 178.73-16.6387 178.73-25.8279 195.323-33.2773 215.791-33.2773 236.26-33.2773 252.853-25.8279 252.853-16.6387Z" stroke="#FFA500" stroke-width="0.92437" stroke-linecap="butt" stroke-linejoin="miter" stroke-miterlimit="4" stroke-opacity="1" fill="#FFA500" fill-rule="nonzero" fill-opacity="1" transform="matrix(1.00039 0 0 1 917.746 558.303)"/><text fill="#000000" fill-opacity="1" font-family="Times,Times_MSFontService,sans-serif" font-style="normal" font-variant="normal" font-weight="400" font-stretch="normal" font-size="14" text-anchor="start" direction="ltr" writing-mode="lr-tb" unicode-bidi="normal" text-decoration="none" transform="matrix(0.924728 0 0 0.92437 1105.42 545)">Dashboard</text><path d="M222.702-66.3988C221.714-59.2808 220.538-50.8166 219.44-42.9061" stroke="#000000" stroke-width="0.92437" stroke-linecap="butt" stroke-linejoin="miter" stroke-miterlimit="4" stroke-opacity="1" fill="none" fill-rule="nonzero" transform="matrix(1.00039 0 0 1 917.746 558.303)"/><path d="M222.632-42.3701 218.155-33.6594 216.222-43.2602 222.632-42.3701Z" stroke="#000000" stroke-width="0.92437" stroke-linecap="butt" stroke-linejoin="miter" stroke-miterlimit="4" stroke-opacity="1" fill="#000000" fill-rule="nonzero" fill-opacity="1" transform="matrix(1.00039 0 0 1 917.746 558.303)"/><path d="M333.551-16.6387C333.551-7.44938 319.316 0 301.758 0 284.199 0 269.965-7.44938 269.965-16.6387 269.965-25.8279 284.199-33.2773 301.758-33.2773 319.316-33.2773 333.551-25.8279 333.551-16.6387Z" stroke="#FFA500" stroke-width="0.92437" stroke-linecap="butt" stroke-linejoin="miter" stroke-miterlimit="4" stroke-opacity="1" fill="#FFA500" fill-rule="nonzero" fill-opacity="1" transform="matrix(1.00039 0 0 1 917.746 558.303)"/><text fill="#000000" fill-opacity="1" font-family="Times,Times_MSFontService,sans-serif" font-style="normal" font-variant="normal" font-weight="400" font-stretch="normal" font-size="14" text-anchor="start" direction="ltr" writing-mode="lr-tb" unicode-bidi="normal" text-decoration="none" transform="matrix(0.924728 0 0 0.92437 1196.96 545)">Report 3</text><path d="M243.217-67.4208C253.686-58.3394 266.958-46.8265 278.217-37.0597" stroke="#000000" stroke-width="0.92437" stroke-linecap="butt" stroke-linejoin="miter" stroke-miterlimit="4" stroke-opacity="1" fill="none" fill-rule="nonzero" transform="matrix(1.00039 0 0 1 917.746 558.303)"/><path d="M280.412-39.4379 285.275-30.9367 276.172-34.55 280.412-39.4379Z" stroke="#000000" stroke-width="0.92437" stroke-linecap="butt" stroke-linejoin="miter" stroke-miterlimit="4" stroke-opacity="1" fill="#000000" fill-rule="nonzero" fill-opacity="1" transform="matrix(1.00039 0 0 1 917.746 558.303)"/></g></g></g></g></svg>