<svg xmlns="http://www.w3.org/2000/svg" xmlns:xlink="http://www.w3.org/1999/xlink" width="367" height="441" overflow="hidden"><style><![CDATA[.B{stroke-width:.924}.C{fill:none}.D{stroke:orange}.E{fill:orange}.F{fill:#000}.G{font-family:Times,Times_MSFontService,sans-serif}.H{font-size:14px}.I{direction:ltr}.J{writing-mode:lr-tb}.K{unicode-bidi:normal}.L{stroke:#000}]]></style><defs><clipPath id="A"><path d="M913 121h367v441H913z"/></clipPath><clipPath id="B"><path d="M914 122h366v440H914z"/></clipPath><clipPath id="C"><path d="M914 122h366v440H914z"/></clipPath><clipPath id="D"><path d="M914 122h366v440H914z"/></clipPath><path id="E" d="M1182.164 208.891c0 9.19-17.593 16.639-39.295 16.639s-39.295-7.449-39.295-16.639 17.593-16.638 39.295-16.638 39.295 7.449 39.295 16.638z"/><path id="F" d="M981.405 541.664c0 9.189-14.24 16.639-31.805 16.639s-31.805-7.449-31.805-16.639 14.24-16.639 31.805-16.639 31.805 7.449 31.805 16.639z"/></defs><g clip-path="url(#A)" transform="translate(-913 -121)"><g clip-path="url(#B)"><g clip-path="url(#C)"><g clip-path="url(#D)"><path d="M914.047 562V122h365.909v440H914.047z" fill="#fff"/><path d="M1167.836 142.337c0 9.189-11.178 16.638-24.968 16.638s-24.968-7.449-24.968-16.638 11.178-16.639 24.968-16.639 24.968 7.449 24.968 16.639z" class="B D E"/><text transform="matrix(.924728 0 0 .92437 1130.85 146)" class="F G H I J K">Start</text><path d="M1087.841 208.891c0 9.19-17.593 16.639-39.295 16.639s-39.295-7.449-39.295-16.639 17.594-16.638 39.295-16.638 39.295 7.449 39.295 16.638z" class="B D E"/><text transform="matrix(.924728 0 0 .92437 1018.49 212)" class="F G H I J K">Load File 1</text><g class="B"><g class="L"><path d="M1125.569 154.544l-48.624 34.309" class="C"/><path d="M1078.441 191.757l-9.421 2.687 5.689-7.973 3.731 5.286z"/></g><use xlink:href="#E" class="D E"/></g><text transform="matrix(.924728 0 0 .92437 1112.81 212)" class="F G H I J K">Load File 2</text><g class="B"><g class="L"><path d="M1142.869 159.131v23.492" class="C"/><path d="M1146.105 182.627l-3.236 9.244-3.236-9.244h6.473z"/></g><path d="M1276.487 208.891c0 9.19-17.593 16.639-39.295 16.639s-39.295-7.449-39.295-16.639 17.593-16.638 39.295-16.638 39.295 7.449 39.295 16.638z" class="D E"/></g><text transform="matrix(.924728 0 0 .92437 1207.14 212)" class="F G H I J K">Load File 3</text><g class="B"><g class="L"><path d="M1160.169 154.544l48.624 34.309" class="C"/><path d="M1211.028 186.471l5.689 7.973-9.422-2.687 3.732-5.286z"/></g><path d="M1169.404 275.446c0 9.189-11.881 16.639-26.535 16.639s-26.535-7.45-26.535-16.639 11.881-16.639 26.535-16.639 26.535 7.45 26.535 16.639z" class="D E"/></g><text transform="matrix(.924728 0 0 .92437 1125.76 279)" class="F G H I J K">Merge</text><g class="B"><g class="L"><path d="M1068.781 223.169l48.835 34.459" class="C"/><path d="M1119.52 255.01l5.688 7.974-9.422-2.688 3.733-5.286z"/><path d="M1142.869 225.686v23.492" class="C"/><path d="M1146.105 249.182l-3.236 9.243-3.236-9.243h6.473z"/><path d="M1216.957 223.169l-48.835 34.459" class="C"/><path d="M1169.95 260.296l-9.421 2.688 5.688-7.974 3.732 5.286z"/></g><path d="M1167.836 342c0 9.19-11.178 16.639-24.968 16.639s-24.968-7.449-24.968-16.639 11.178-16.638 24.968-16.638 24.968 7.449 24.968 16.638z" class="D E"/></g><text transform="matrix(.924728 0 0 .92437 1127.61 345)" class="F G H I J K">Clean</text><g class="B"><g class="L"><path d="M1142.869 292.241v23.492" class="C"/><path d="M1146.105 315.736l-3.236 9.244-3.236-9.244h6.473z"/></g><path d="M1179.667 408.555c0 9.189-16.475 16.639-36.798 16.639s-36.798-7.45-36.798-16.639 16.475-16.639 36.798-16.639 36.798 7.45 36.798 16.639z" class="D E"/></g><text transform="matrix(.924728 0 0 .92437 1115.59 412)" class="F G H I J K">Normalize</text><g class="B"><g class="L"><path d="M1142.869 358.795v23.492" class="C"/><path d="M1146.105 382.291l-3.236 9.244-3.236-9.244h6.473z"/></g><path d="M1076.648 475.11c0 9.189-25.002 16.639-55.844 16.639s-55.844-7.449-55.844-16.639 25.002-16.639 55.844-16.639 55.844 7.449 55.844 16.639z" class="D E"/></g><text transform="matrix(.924728 0 0 .92437 974.106 479)" class="F G H I J K">Weekly Summary</text><g class="B"><g class="L"><path d="M1119.334 421.387l-63.547 34.648" class="C"/><path d="M1057.335 458.877l-9.668 1.586 6.569-7.266 3.099 5.68z"/></g><path d="M1192.703 475.11c0 9.189-22.312 16.639-49.834 16.639s-49.834-7.449-49.834-16.639 22.312-16.639 49.834-16.639 49.834 7.449 49.834 16.639z" class="D E"/></g><text transform="matrix(.924728 0 0 .92437 1101.72 479)" class="F G H I J K">Daily Summary</text><g class="B"><g class="L"><path d="M1142.869 425.35v23.492" class="C"/><path d="M1146.105 448.846l-3.236 9.243-3.236-9.243h6.473z"/></g><path d="M1272.695 475.11c0 9.189-14.24 16.639-31.805 16.639s-31.805-7.449-31.805-16.639 14.241-16.639 31.805-16.639 31.805 7.449 31.805 16.639z" class="D E"/></g><text transform="matrix(.924728 0 0 .92437 1218.23 479)" class="F G H I J K">Serialize</text><g class="B"><g class="L"><path d="M1163.417 422.508l50.046 33.978" class="C"/><path d="M1215.54 453.986l5.83 7.87-9.468-2.518 3.637-5.352z"/></g><use xlink:href="#F" class="D E"/></g><text transform="matrix(.924728 0 0 .92437 926.944 545)" class="F G H I J K">Report 1</text><g class="B"><g class="L"><path d="M1003.568 491.221l-31.307 29.263" class="C"/><path d="M974.186 523.114l-8.965 3.95 4.544-8.677 4.421 4.726z"/></g><path d="M1061.857 541.664c0 9.189-14.24 16.639-31.805 16.639s-31.805-7.449-31.805-16.639 14.24-16.639 31.805-16.639 31.805 7.449 31.805 16.639z" class="D E"/></g><text transform="matrix(.924728 0 0 .92437 1007.4 545)" class="F G H I J K">Report 2</text><g class="B"><g class="L"><path d="M1023.137 491.904l3.264 23.493" class="C"/><path d="M1029.62 515.043l-1.933 9.601-4.478-8.711 6.41-.89z"/></g><path d="M1170.698 541.664c0 9.189-16.599 16.639-37.076 16.639s-37.075-7.449-37.075-16.639 16.599-16.639 37.075-16.639 37.076 7.449 37.076 16.639z" class="D E"/></g><text transform="matrix(.924728 0 0 .92437 1105.42 545)" class="F G H I J K">Dashboard</text><g class="B"><g class="L"><path d="M1140.535 491.904l-3.263 23.493" class="C"/><path d="M1140.465 515.933l-4.479 8.711-1.934-9.601 6.412.89z"/></g><path d="M1251.427 541.664c0 9.189-14.241 16.639-31.805 16.639s-31.805-7.449-31.805-16.639 14.24-16.639 31.805-16.639 31.805 7.449 31.805 16.639z" class="D E"/></g><text transform="matrix(.924728 0 0 .92437 1196.96 545)" class="F G H I J K">Report 3</text><g class="B L"><path d="M1161.058 490.882l35.014 30.361" class="C"/><path d="M1198.267 518.865l4.865 8.501-9.107-3.613 4.242-4.888z"/></g></g></g></g></g></svg>
