<svg xmlns="http://www.w3.org/2000/svg" xmlns:xlink="http://www.w3.org/1999/xlink" width="791" height="120" overflow="hidden"><style><![CDATA[.B{stroke:#000}.C{stroke-width:1.148}.D{fill:none}.E{fill:#000}.F{font-family:Times,Times_MSFontService,sans-serif}.G{font-size:14px}.H{direction:ltr}.I{writing-mode:lr-tb}.J{unicode-bidi:normal}]]></style><defs><clipPath id="A"><path d="M469 28h791v120H469z"/></clipPath><clipPath id="B"><path d="M470 28h790v120H470z"/></clipPath><clipPath id="C"><path d="M470 28h790v120H470z"/></clipPath><clipPath id="D"><path d="M470 28h790v120H470z"/></clipPath><path id="E" d="M896.007 107.234c0 11.416-13.882 20.67-31.008 20.67s-31.008-9.254-31.008-20.67 13.883-20.67 31.008-20.67 31.008 9.254 31.008 20.67z"/><path id="F" d="M1134.88 67.043c0 11.416-13.883 20.67-31.008 20.67s-31.008-9.254-31.008-20.67 13.882-20.67 31.008-20.67 31.008 9.254 31.008 20.67z"/></defs><g clip-path="url(#A)" transform="translate(-469 -28)"><g clip-path="url(#B)"><g clip-path="url(#C)"><g clip-path="url(#D)"><path d="M471.088 147.997V28h787.822v119.997H471.088z" fill="#fff"/><path d="M537.697 111.828c0 11.416-13.883 20.67-31.008 20.67s-31.008-9.254-31.008-20.67 13.883-20.67 31.008-20.67 31.008 9.254 31.008 20.67z" class="B C D"/><text transform="matrix(1.14843 0 0 1.14833 502.67 116)" class="E F G H I J">0</text><path d="M657.133 53.263c0 11.416-13.882 20.67-31.007 20.67s-31.008-9.254-31.008-20.67 13.882-20.67 31.008-20.67 31.007 9.254 31.007 20.67z" class="B C D"/><text transform="matrix(1.14843 0 0 1.14833 622.107 58)" class="E F G H I J">1</text><path d="M531.727 99.551l69.394-34.027" class="B C D"/><text transform="matrix(1.14843 0 0 1.14833 556.072 75)" class="E F G H I J">5.6</text><path d="M776.57 107.234c0 11.416-13.882 20.67-31.008 20.67s-31.007-9.254-31.007-20.67 13.882-20.67 31.007-20.67 31.008 9.254 31.008 20.67z" class="B C D"/><text transform="matrix(1.14843 0 0 1.14833 741.544 111)" class="E F G H I J">2</text><path d="M537.918 111.227l176.408-3.392" class="B C D"/><text transform="matrix(1.14843 0 0 1.14833 615.791 105)" class="E F G H I J">2.3</text><use xlink:href="#E" class="B C D"/><text transform="matrix(1.14843 0 0 1.14833 860.98 111)" class="E F G H I J">3</text><path d="M535.626 119.67c49.6 12.328 153.924 33.382 240.944 18.569 21.812-3.713 45.406-12.231 62.732-19.401" class="B C D"/><text transform="matrix(1.14843 0 0 1.14833 675.509 137)" class="E F G H I J">4.6</text><path d="M652.042 64.974l67.656 30.572" class="B C D"/><text transform="matrix(1.14843 0 0 1.14833 675.509 73)" class="E F G H I J">1.9</text><path d="M657.278 52.945c11.544.243 24.716.946 36.605 2.615 54.185 7.604 67.537 12.529 119.437 29.857 8.498 2.837 17.563 6.453 25.689 9.921" class="B C D"/><text transform="matrix(1.14843 0 0 1.14833 735.227 55)" class="E F G H I J">6.2</text><path d="M776.631 107.234h57.04" class="B C D"/><text transform="matrix(1.14843 0 0 1.14833 794.946 103)" class="E F G H I J">3.0</text><path d="M1015.444 107.234c0 11.416-13.882 20.67-31.008 20.67s-31.008-9.254-31.008-20.67 13.883-20.67 31.008-20.67 31.008 9.254 31.008 20.67z" class="B C D"/><text transform="matrix(1.14843 0 0 1.14833 980.417 111)" class="E F G H I J">4</text><path d="M896.068 107.234h57.04" class="B C D"/><text transform="matrix(1.14843 0 0 1.14833 914.383 103)" class="E F G H I J">1.4</text><use xlink:href="#F" class="B C D"/><text transform="matrix(1.14843 0 0 1.14833 1099.85 71)" class="E F G H I J">5</text><path d="M1012.137 97.913l63.77-21.459" class="B C D"/><text transform="matrix(1.14843 0 0 1.14833 1033.82 81)" class="E F G H I J">4.4</text><path d="M1254.317 107.234c0 11.416-13.883 20.67-31.008 20.67s-31.008-9.254-31.008-20.67 13.882-20.67 31.008-20.67 31.008 9.254 31.008 20.67z" class="B C D"/><text transform="matrix(1.14843 0 0 1.14833 1219.29 111)" class="E F G H I J">6</text><path d="M1015.083 110.709c16.999 1.754 38.532 3.691 57.782 4.564 27.533 1.249 34.482 1.249 62.016 0 19.25-.873 40.784-2.81 57.782-4.564" class="B C D"/><text transform="matrix(1.14843 0 0 1.14833 1093.54 111)" class="E F G H I J">1.0</text><path d="M1131.574 76.365l63.77 21.459" class="B C D"/><text transform="matrix(1.14843 0 0 1.14833 1153.26 81)" class="E F G H I J">2.8</text></g></g></g></g></svg>
