<svg width="791" height="120" xmlns="http://www.w3.org/2000/svg" xmlns:xlink="http://www.w3.org/1999/xlink" xml:space="preserve" overflow="hidden"><defs><clipPath id="clip0"><rect x="469" y="28" width="791" height="120"/></clipPath><clipPath id="clip1"><rect x="470" y="28" width="790" height="120"/></clipPath><clipPath id="clip2"><rect x="470" y="28" width="790" height="120"/></clipPath><clipPath id="clip3"><rect x="470" y="28" width="790" height="120"/></clipPath></defs><g clip-path="url(#clip0)" transform="translate(-469 -28)"><g clip-path="url(#clip1)"><g clip-path="url(#clip2)"><g clip-path="url(#clip3)"><path d="M-4.5933 4.5933-4.5933-115.404 783.158-115.404 783.158 4.5933-4.5933 4.5933Z" fill="#FFFFFF" fill-rule="nonzero" fill-opacity="1" transform="matrix(1.00009 0 0 1 475.682 143.404)"/><path d="M62.0096-31.5763C62.0096-20.1607 48.1283-10.9064 31.0048-10.9064 13.8813-10.9064 0-20.1607 0-31.5763-8.15934e-15-42.992 13.8813-52.2462 31.0048-52.2462 48.1283-52.2462 62.0096-42.992 62.0096-31.5763Z" stroke="#000000" stroke-width="1.14833" stroke-linecap="butt" stroke-linejoin="miter" stroke-miterlimit="4" stroke-opacity="1" fill="none" fill-rule="nonzero" transform="matrix(1.00009 0 0 1 475.682 143.404)"/><text fill="#000000" fill-opacity="1" font-family="Times,Times_MSFontService,sans-serif" font-style="normal" font-variant="normal" font-weight="400" font-stretch="normal" font-size="14" text-anchor="start" direction="ltr" writing-mode="lr-tb" unicode-bidi="normal" text-decoration="none" transform="matrix(1.14843 0 0 1.14833 502.67 116)">0</text><path d="M181.435-90.1409C181.435-78.7253 167.554-69.471 150.431-69.471 133.307-69.471 119.426-78.7253 119.426-90.1409 119.426-101.557 133.307-110.811 150.431-110.811 167.554-110.811 181.435-101.557 181.435-90.1409Z" stroke="#000000" stroke-width="1.14833" stroke-linecap="butt" stroke-linejoin="miter" stroke-miterlimit="4" stroke-opacity="1" fill="none" fill-rule="nonzero" transform="matrix(1.00009 0 0 1 475.682 143.404)"/><text fill="#000000" fill-opacity="1" font-family="Times,Times_MSFontService,sans-serif" font-style="normal" font-variant="normal" font-weight="400" font-stretch="normal" font-size="14" text-anchor="start" direction="ltr" writing-mode="lr-tb" unicode-bidi="normal" text-decoration="none" transform="matrix(1.14843 0 0 1.14833 622.107 58)">1</text><path d="M56.0403-43.8534C76.4228-53.8486 105.054-67.8892 125.428-77.8801" stroke="#000000" stroke-width="1.14833" stroke-linecap="butt" stroke-linejoin="miter" stroke-miterlimit="4" stroke-opacity="1" fill="none" fill-rule="nonzero" transform="matrix(1.00009 0 0 1 475.682 143.404)"/><text fill="#000000" fill-opacity="1" font-family="Times,Times_MSFontService,sans-serif" font-style="normal" font-variant="normal" font-weight="400" font-stretch="normal" font-size="14" text-anchor="start" direction="ltr" writing-mode="lr-tb" unicode-bidi="normal" text-decoration="none" transform="matrix(1.14843 0 0 1.14833 556.072 75)">5.6</text><path d="M300.861-36.1696C300.861-24.754 286.98-15.4998 269.856-15.4998 252.733-15.4998 238.852-24.754 238.852-36.1696 238.852-47.5853 252.733-56.8395 269.856-56.8395 286.98-56.8395 300.861-47.5853 300.861-36.1696Z" stroke="#000000" stroke-width="1.14833" stroke-linecap="butt" stroke-linejoin="miter" stroke-miterlimit="4" stroke-opacity="1" fill="none" fill-rule="nonzero" transform="matrix(1.00009 0 0 1 475.682 143.404)"/><text fill="#000000" fill-opacity="1" font-family="Times,Times_MSFontService,sans-serif" font-style="normal" font-variant="normal" font-weight="400" font-stretch="normal" font-size="14" text-anchor="start" direction="ltr" writing-mode="lr-tb" unicode-bidi="normal" text-decoration="none" transform="matrix(1.14843 0 0 1.14833 741.544 111)">2</text><path d="M62.2305-32.1769C108.006-33.0572 192.843-34.6886 238.623-35.569" stroke="#000000" stroke-width="1.14833" stroke-linecap="butt" stroke-linejoin="miter" stroke-miterlimit="4" stroke-opacity="1" fill="none" fill-rule="nonzero" transform="matrix(1.00009 0 0 1 475.682 143.404)"/><text fill="#000000" fill-opacity="1" font-family="Times,Times_MSFontService,sans-serif" font-style="normal" font-variant="normal" font-weight="400" font-stretch="normal" font-size="14" text-anchor="start" direction="ltr" writing-mode="lr-tb" unicode-bidi="normal" text-decoration="none" transform="matrix(1.14843 0 0 1.14833 615.791 105)">2.3</text><path d="M420.287-36.1696C420.287-24.754 406.406-15.4998 389.282-15.4998 372.159-15.4998 358.277-24.754 358.277-36.1696 358.277-47.5853 372.159-56.8395 389.282-56.8395 406.406-56.8395 420.287-47.5853 420.287-36.1696Z" stroke="#000000" stroke-width="1.14833" stroke-linecap="butt" stroke-linejoin="miter" stroke-miterlimit="4" stroke-opacity="1" fill="none" fill-rule="nonzero" transform="matrix(1.00009 0 0 1 475.682 143.404)"/><text fill="#000000" fill-opacity="1" font-family="Times,Times_MSFontService,sans-serif" font-style="normal" font-variant="normal" font-weight="400" font-stretch="normal" font-size="14" text-anchor="start" direction="ltr" writing-mode="lr-tb" unicode-bidi="normal" text-decoration="none" transform="matrix(1.14843 0 0 1.14833 860.98 111)">3</text><path d="M59.9389-23.7336C109.534-11.4057 213.849 9.64823 300.861-5.16482 322.671-8.87782 346.263-17.3961 363.587-24.5662" stroke="#000000" stroke-width="1.14833" stroke-linecap="butt" stroke-linejoin="miter" stroke-miterlimit="4" stroke-opacity="1" fill="none" fill-rule="nonzero" transform="matrix(1.00009 0 0 1 475.682 143.404)"/><text fill="#000000" fill-opacity="1" font-family="Times,Times_MSFontService,sans-serif" font-style="normal" font-variant="normal" font-weight="400" font-stretch="normal" font-size="14" text-anchor="start" direction="ltr" writing-mode="lr-tb" unicode-bidi="normal" text-decoration="none" transform="matrix(1.14843 0 0 1.14833 675.509 137)">4.6</text><path d="M176.344-78.4299C196.376-69.3772 223.974-56.9048 243.994-47.8577" stroke="#000000" stroke-width="1.14833" stroke-linecap="butt" stroke-linejoin="miter" stroke-miterlimit="4" stroke-opacity="1" fill="none" fill-rule="nonzero" transform="matrix(1.00009 0 0 1 475.682 143.404)"/><text fill="#000000" fill-opacity="1" font-family="Times,Times_MSFontService,sans-serif" font-style="normal" font-variant="normal" font-weight="400" font-stretch="normal" font-size="14" text-anchor="start" direction="ltr" writing-mode="lr-tb" unicode-bidi="normal" text-decoration="none" transform="matrix(1.14843 0 0 1.14833 675.509 73)">1.9</text><path d="M181.58-90.4589C193.123-90.2162 206.294-89.5126 218.182-87.8443 272.362-80.2404 285.713-75.315 337.608-57.9878 346.105-55.1505 355.169-51.5347 363.295-48.0664" stroke="#000000" stroke-width="1.14833" stroke-linecap="butt" stroke-linejoin="miter" stroke-miterlimit="4" stroke-opacity="1" fill="none" fill-rule="nonzero" transform="matrix(1.00009 0 0 1 475.682 143.404)"/><text fill="#000000" fill-opacity="1" font-family="Times,Times_MSFontService,sans-serif" font-style="normal" font-variant="normal" font-weight="400" font-stretch="normal" font-size="14" text-anchor="start" direction="ltr" writing-mode="lr-tb" unicode-bidi="normal" text-decoration="none" transform="matrix(1.14843 0 0 1.14833 735.227 55)">6.2</text><path d="M300.922-36.1696C318.477-36.1696 340.36-36.1696 357.957-36.1696" stroke="#000000" stroke-width="1.14833" stroke-linecap="butt" stroke-linejoin="miter" stroke-miterlimit="4" stroke-opacity="1" fill="none" fill-rule="nonzero" transform="matrix(1.00009 0 0 1 475.682 143.404)"/><text fill="#000000" fill-opacity="1" font-family="Times,Times_MSFontService,sans-serif" font-style="normal" font-variant="normal" font-weight="400" font-stretch="normal" font-size="14" text-anchor="start" direction="ltr" writing-mode="lr-tb" unicode-bidi="normal" text-decoration="none" transform="matrix(1.14843 0 0 1.14833 794.946 103)">3.0</text><path d="M539.713-36.1696C539.713-24.754 525.832-15.4998 508.708-15.4998 491.585-15.4998 477.703-24.754 477.703-36.1696 477.703-47.5853 491.585-56.8395 508.708-56.8395 525.832-56.8395 539.713-47.5853 539.713-36.1696Z" stroke="#000000" stroke-width="1.14833" stroke-linecap="butt" stroke-linejoin="miter" stroke-miterlimit="4" stroke-opacity="1" fill="none" fill-rule="nonzero" transform="matrix(1.00009 0 0 1 475.682 143.404)"/><text fill="#000000" fill-opacity="1" font-family="Times,Times_MSFontService,sans-serif" font-style="normal" font-variant="normal" font-weight="400" font-stretch="normal" font-size="14" text-anchor="start" direction="ltr" writing-mode="lr-tb" unicode-bidi="normal" text-decoration="none" transform="matrix(1.14843 0 0 1.14833 980.417 111)">4</text><path d="M420.348-36.1696C437.902-36.1696 459.786-36.1696 477.383-36.1696" stroke="#000000" stroke-width="1.14833" stroke-linecap="butt" stroke-linejoin="miter" stroke-miterlimit="4" stroke-opacity="1" fill="none" fill-rule="nonzero" transform="matrix(1.00009 0 0 1 475.682 143.404)"/><text fill="#000000" fill-opacity="1" font-family="Times,Times_MSFontService,sans-serif" font-style="normal" font-variant="normal" font-weight="400" font-stretch="normal" font-size="14" text-anchor="start" direction="ltr" writing-mode="lr-tb" unicode-bidi="normal" text-decoration="none" transform="matrix(1.14843 0 0 1.14833 914.383 103)">1.4</text><path d="M659.139-76.361C659.139-64.9454 645.257-55.6911 628.134-55.6911 611.01-55.6911 597.129-64.9454 597.129-76.361 597.129-87.7766 611.01-97.0309 628.134-97.0309 645.257-97.0309 659.139-87.7766 659.139-76.361Z" stroke="#000000" stroke-width="1.14833" stroke-linecap="butt" stroke-linejoin="miter" stroke-miterlimit="4" stroke-opacity="1" fill="none" fill-rule="nonzero" transform="matrix(1.00009 0 0 1 475.682 143.404)"/><text fill="#000000" fill-opacity="1" font-family="Times,Times_MSFontService,sans-serif" font-style="normal" font-variant="normal" font-weight="400" font-stretch="normal" font-size="14" text-anchor="start" direction="ltr" writing-mode="lr-tb" unicode-bidi="normal" text-decoration="none" transform="matrix(1.14843 0 0 1.14833 1099.85 71)">5</text><path d="M536.407-45.4914C555.562-51.9381 580.958-60.4848 600.171-66.9507" stroke="#000000" stroke-width="1.14833" stroke-linecap="butt" stroke-linejoin="miter" stroke-miterlimit="4" stroke-opacity="1" fill="none" fill-rule="nonzero" transform="matrix(1.00009 0 0 1 475.682 143.404)"/><text fill="#000000" fill-opacity="1" font-family="Times,Times_MSFontService,sans-serif" font-style="normal" font-variant="normal" font-weight="400" font-stretch="normal" font-size="14" text-anchor="start" direction="ltr" writing-mode="lr-tb" unicode-bidi="normal" text-decoration="none" transform="matrix(1.14843 0 0 1.14833 1033.82 81)">4.4</text><path d="M778.565-36.1696C778.565-24.754 764.683-15.4998 747.56-15.4998 730.436-15.4998 716.555-24.754 716.555-36.1696 716.555-47.5853 730.436-56.8395 747.56-56.8395 764.683-56.8395 778.565-47.5853 778.565-36.1696Z" stroke="#000000" stroke-width="1.14833" stroke-linecap="butt" stroke-linejoin="miter" stroke-miterlimit="4" stroke-opacity="1" fill="none" fill-rule="nonzero" transform="matrix(1.00009 0 0 1 475.682 143.404)"/><text fill="#000000" fill-opacity="1" font-family="Times,Times_MSFontService,sans-serif" font-style="normal" font-variant="normal" font-weight="400" font-stretch="normal" font-size="14" text-anchor="start" direction="ltr" writing-mode="lr-tb" unicode-bidi="normal" text-decoration="none" transform="matrix(1.14843 0 0 1.14833 1219.29 111)">6</text><path d="M539.352-32.6951C556.349-30.9414 577.881-29.0045 597.129-28.1313 624.66-26.8825 631.608-26.8825 659.139-28.1313 678.387-29.0045 699.919-30.9414 716.916-32.6951" stroke="#000000" stroke-width="1.14833" stroke-linecap="butt" stroke-linejoin="miter" stroke-miterlimit="4" stroke-opacity="1" fill="none" fill-rule="nonzero" transform="matrix(1.00009 0 0 1 475.682 143.404)"/><text fill="#000000" fill-opacity="1" font-family="Times,Times_MSFontService,sans-serif" font-style="normal" font-variant="normal" font-weight="400" font-stretch="normal" font-size="14" text-anchor="start" direction="ltr" writing-mode="lr-tb" unicode-bidi="normal" text-decoration="none" transform="matrix(1.14843 0 0 1.14833 1093.54 111)">1.0</text><path d="M655.833-67.0393C674.988-60.5927 700.385-52.0459 719.597-45.58" stroke="#000000" stroke-width="1.14833" stroke-linecap="butt" stroke-linejoin="miter" stroke-miterlimit="4" stroke-opacity="1" fill="none" fill-rule="nonzero" transform="matrix(1.00009 0 0 1 475.682 143.404)"/><text fill="#000000" fill-opacity="1" font-family="Times,Times_MSFontService,sans-serif" font-style="normal" font-variant="normal" font-weight="400" font-stretch="normal" font-size="14" text-anchor="start" direction="ltr" writing-mode="lr-tb" unicode-bidi="normal" text-decoration="none" transform="matrix(1.14843 0 0 1.14833 1153.26 81)">2.8</text></g></g></g></g></svg>
